<?xml version="1.0" encoding="UTF-8" standalone="no"?>
<svg width="39px" height="27px" viewBox="0 0 39 27" version="1.1" xmlns="http://www.w3.org/2000/svg" xmlns:xlink="http://www.w3.org/1999/xlink" xmlns:sketch="http://www.bohemiancoding.com/sketch/ns">
    <!-- Generator: Sketch 3.3.2 (12043) - http://www.bohemiancoding.com/sketch -->
    <title>доставка</title>
    <desc>Created with Sketch.</desc>
    <defs></defs>
    <g id="1920x1024" stroke="none" stroke-width="1" fill="none" fill-rule="evenodd" sketch:type="MSPage">
        <g id="1920x1024---20160718_card" sketch:type="MSArtboardGroup" transform="translate(-1270.000000, -987.000000)" fill="#C8C8C8">
            <g id="карточка" sketch:type="MSLayerGroup" transform="translate(325.000000, 341.000000)">
                <g id="оплата-и-доставка" transform="translate(536.000000, 635.000000)" sketch:type="MSShapeGroup">
                    <g id="Доставка-по-Хабаровс-+-доставка" transform="translate(231.000000, 11.000000)">
                        <g id="доставка" transform="translate(178.000000, 0.000000)">
                            <path d="M12.7059706,0.0183529412 L38.6375294,0.0183529412 L38.6375294,17.4135 L12.7059706,17.4135 L12.7059706,0.0183529412 Z" id="Fill-1"></path>
                            <path d="M8.02826471,18.8633824 C6.03582353,18.8633824 4.41847059,20.4807353 4.41847059,22.4766176 C4.41847059,24.4725 6.03582353,26.0875588 8.02826471,26.0875588 C10.023,26.0875588 11.6380588,24.4725 11.6380588,22.4766176 C11.6380588,20.4807353 10.023,18.8633824 8.02826471,18.8633824 L8.02826471,18.8633824 Z M8.02826471,24.1822941 C7.08767647,24.1822941 6.32373529,23.4172059 6.32373529,22.4766176 C6.32373529,21.5325882 7.08767647,20.7686471 8.02826471,20.7686471 C8.97114706,20.7686471 9.73394118,21.5325882 9.73394118,22.4766176 C9.73394118,23.4172059 8.97114706,24.1822941 8.02826471,24.1822941 L8.02826471,24.1822941 Z" id="Fill-2"></path>
                            <path d="M12.7059706,18.9012353 L12.7059706,22.1680588 L30.0460588,22.1680588 C30.1252059,20.8936765 30.6792353,19.7431765 31.5406765,18.9012353 L12.7059706,18.9012353" id="Fill-3"></path>
                            <path d="M35.0254412,18.8633824 C33.0352941,18.8633824 31.4156471,20.4807353 31.4156471,22.4766176 C31.4156471,24.4725 33.0352941,26.0875588 35.0254412,26.0875588 C37.0224706,26.0875588 38.6375294,24.4725 38.6375294,22.4766176 C38.6375294,20.4807353 37.0224706,18.8633824 35.0254412,18.8633824 L35.0254412,18.8633824 Z M35.0254412,24.1822941 C34.0848529,24.1822941 33.3197647,23.4172059 33.3197647,22.4766176 C33.3197647,21.5325882 34.0848529,20.7686471 35.0254412,20.7686471 C35.9694706,20.7686471 36.7322647,21.5325882 36.7322647,22.4766176 C36.7322647,23.4172059 35.9694706,24.1822941 35.0254412,24.1822941 L35.0254412,24.1822941 Z" id="Fill-4"></path>
                            <path d="M8.02826471,17.3871176 C9.06520588,17.3871176 10.0310294,17.7002647 10.8362647,18.2325 L10.8362647,5.63205882 L3.64191176,5.63205882 L0.784588235,13.611 L0.784588235,21.9581471 L2.96629412,21.9581471 C3.22667647,19.3898824 5.39576471,17.3871176 8.02826471,17.3871176 L8.02826471,17.3871176 Z M4.61805882,7.01655882 L9.45061765,7.01655882 L9.45061765,13.2382059 L2.39161765,13.2382059 L4.61805882,7.01655882 L4.61805882,7.01655882 Z" id="Fill-5"></path>
                        </g>
                    </g>
                </g>
            </g>
        </g>
    </g>
</svg>