<?xml version="1.0" encoding="UTF-8" standalone="no"?>
<svg width="57px" height="58px" viewBox="0 0 57 58" version="1.1" xmlns="http://www.w3.org/2000/svg" xmlns:xlink="http://www.w3.org/1999/xlink" xmlns:sketch="http://www.bohemiancoding.com/sketch/ns">
    <!-- Generator: Sketch 3.3.2 (12043) - http://www.bohemiancoding.com/sketch -->
    <title>Instagram 2 Copy</title>
    <desc>Created with Sketch.</desc>
    <defs></defs>
    <g id="1920x1024" stroke="none" stroke-width="1" fill="none" fill-rule="evenodd" sketch:type="MSPage">
        <g id="1920x1024---20160718_main" sketch:type="MSArtboardGroup" transform="translate(-1518.000000, -3358.000000)">
            <g id="Footer" sketch:type="MSLayerGroup" transform="translate(0.000000, 3329.000000)">
                <g id="Social" transform="translate(1356.740676, 29.489510)" sketch:type="MSShapeGroup">
                    <g id="Instagram-2-Copy" transform="translate(161.287272, 0.000000)">
                        <ellipse id="Oval-8" fill="#FFFFFF" cx="28.2252726" cy="28.4153418" rx="28.2252726" ry="28.4153418"></ellipse>
                        <path d="M40.4238983,13.1928373 L16.7908004,13.1928373 C14.7549503,13.1928373 13.1045908,14.8501319 13.1045908,16.8947759 L13.1045908,40.7047155 C13.1045908,42.7493594 14.7549503,44.4066541 16.7908004,44.4066541 L40.4238983,44.4066541 C42.4597485,44.4066541 44.1098638,42.7493594 44.1098638,40.7047155 L44.1098638,16.8947759 C44.1098638,14.8501319 42.4597485,13.1928373 40.4238983,13.1928373 L40.4238983,13.1928373 Z M34.6422694,17.6208101 C34.6422694,17.1398186 35.0304457,16.7497657 35.5091964,16.7497657 L39.7012558,16.7497657 C40.1802506,16.7497657 40.5684269,17.1398186 40.5684269,17.6208101 L40.5684269,21.8310219 C40.5684269,22.3122591 40.1802506,22.7020663 39.7012558,22.7020663 L35.5091964,22.7020663 C35.0304457,22.7020663 34.6422694,22.3122591 34.6422694,21.8310219 L34.6422694,17.6208101 L34.6422694,17.6208101 Z M28.6436036,22.8473223 C31.93651,22.8473223 34.6058932,25.5287823 34.6058932,28.8359982 C34.6058932,32.14346 31.93651,34.8244285 28.6436036,34.8244285 C25.350453,34.8244285 22.6810699,32.14346 22.6810699,28.8359982 C22.6810699,25.5287823 25.350453,22.8473223 28.6436036,22.8473223 L28.6436036,22.8473223 Z M40.6406911,39.9059304 C40.6406911,40.3869219 40.2525149,40.7769748 39.77352,40.7769748 L17.513443,40.7769748 C17.0344482,40.7769748 16.6460278,40.3869219 16.6460278,39.9059304 L16.6460278,26.3317456 L19.5470959,26.3317456 C19.3288384,27.1297933 19.2118972,27.9693779 19.2118972,28.8359982 C19.2118972,34.0593152 23.4427742,38.3088518 28.6436036,38.3088518 C33.8439447,38.3088518 38.0750658,34.0593152 38.0750658,28.8359982 C38.0750658,27.9693779 37.9581247,27.1297933 37.7398671,26.3317456 L40.6406911,26.3317456 L40.6406911,39.9059304 L40.6406911,39.9059304 Z" id="Imported-Layers" fill="#000000"></path>
                    </g>
                </g>
            </g>
        </g>
    </g>
</svg>