<?xml version="1.0" encoding="UTF-8" standalone="no"?>
<svg width="18px" height="18px" viewBox="0 0 18 18" version="1.1" xmlns="http://www.w3.org/2000/svg" xmlns:xlink="http://www.w3.org/1999/xlink" xmlns:sketch="http://www.bohemiancoding.com/sketch/ns">
    <!-- Generator: Sketch 3.3.2 (12043) - http://www.bohemiancoding.com/sketch -->
    <title>Imported Layers Copy 3</title>
    <desc>Created with Sketch.</desc>
    <defs></defs>
    <g id="1920x1024" stroke="none" stroke-width="1" fill="none" fill-rule="evenodd" sketch:type="MSPage">
        <g id="1920x1024---20160718_main" sketch:type="MSArtboardGroup" transform="translate(-1083.000000, -151.000000)" fill="#479EAF">
            <g id="Header-Copy" sketch:type="MSLayerGroup" transform="translate(-16.000000, 57.000000)">
                <g id="Поиск" transform="translate(792.299227, 86.825801)" sketch:type="MSShapeGroup">
                    <path d="M324.176974,22.663289 L319.979142,18.4073001 C319.930899,18.3591387 319.876809,18.3206095 319.824912,18.2798576 C320.533931,17.1773312 320.948378,15.8628945 320.948378,14.4484302 C320.948378,10.5606911 317.840389,7.4094514 314.004377,7.4094514 C310.169826,7.4094514 307.061106,10.5606911 307.061106,14.4484302 C307.061106,18.3369103 310.169826,21.4874091 314.004377,21.4874091 C315.399756,21.4874091 316.697187,21.0658113 317.786299,20.3478354 C317.826501,20.4004426 317.863049,20.4545315 317.91056,20.502693 L322.108392,24.7594228 C322.394924,25.0483914 322.768438,25.1928757 323.141952,25.1928757 C323.516197,25.1928757 323.890442,25.0483914 324.176243,24.7594228 C324.746382,24.1807447 324.746382,23.2427081 324.176974,22.663289 L324.176974,22.663289 Z M314.004377,19.2645737 C311.385392,19.2645737 309.253218,17.1032367 309.253218,14.4484302 C309.253218,11.7928829 311.385392,9.63228683 314.004377,9.63228683 C316.623362,9.63228683 318.755536,11.7928829 318.755536,14.4484302 C318.755536,17.1032367 316.623362,19.2645737 314.004377,19.2645737 L314.004377,19.2645737 Z" id="Imported-Layers-Copy-3"></path>
                </g>
            </g>
        </g>
    </g>
</svg>