<?xml version="1.0" encoding="UTF-8" standalone="no"?>
<svg width="39px" height="30px" viewBox="0 0 39 30" version="1.1" xmlns="http://www.w3.org/2000/svg" xmlns:xlink="http://www.w3.org/1999/xlink" xmlns:sketch="http://www.bohemiancoding.com/sketch/ns">
    <!-- Generator: Sketch 3.3.2 (12043) - http://www.bohemiancoding.com/sketch -->
    <title>карта</title>
    <desc>Created with Sketch.</desc>
    <defs></defs>
    <g id="1920x1024" stroke="none" stroke-width="1" fill="none" fill-rule="evenodd" sketch:type="MSPage">
        <g id="1920x1024---20160718_card" sketch:type="MSArtboardGroup" transform="translate(-1057.000000, -982.000000)" fill="#C8C8C8">
            <g id="карточка" sketch:type="MSLayerGroup" transform="translate(325.000000, 341.000000)">
                <g id="оплата-и-доставка" transform="translate(536.000000, 635.000000)" sketch:type="MSShapeGroup">
                    <g id="Оплата-наличными-+-наличные-+-карта">
                        <g id="карта" transform="translate(196.000000, 6.000000)">
                            <path d="M18.58,15.335 L17.239,15.335 C17.087,15.674 16.999,16.043 16.956,16.428 L18.473,16.428 C18.489,16.044 18.523,15.679 18.58,15.335" id="Fill-1"></path>
                            <path d="M23.314,14.535 C22.921,14.046 22.416,13.659 21.828,13.428 C22.014,13.736 22.171,14.106 22.294,14.535 L23.314,14.535" id="Fill-2"></path>
                            <path d="M21.665,15.335 L19.387,15.335 C19.325,15.663 19.289,16.034 19.272,16.428 L21.779,16.428 C21.761,16.034 21.726,15.663 21.665,15.335" id="Fill-3"></path>
                            <path d="M20.527,13.285 C20.231,13.285 19.861,13.747 19.596,14.535 L21.455,14.535 C21.19,13.747 20.822,13.285 20.527,13.285" id="Fill-4"></path>
                            <path d="M22.577,16.428 L24.094,16.428 C24.052,16.043 23.963,15.674 23.812,15.335 L22.47,15.335 C22.527,15.679 22.561,16.044 22.577,16.428" id="Fill-5"></path>
                            <path d="M21.829,20.227 C22.417,19.995 22.921,19.608 23.314,19.12 L22.294,19.12 C22.171,19.549 22.014,19.918 21.829,20.227" id="Fill-6"></path>
                            <path d="M22.47,18.32 L23.812,18.32 C23.963,17.98 24.052,17.612 24.094,17.227 L22.577,17.227 C22.561,17.611 22.527,17.977 22.47,18.32" id="Fill-7"></path>
                            <path d="M21.779,17.227 L19.272,17.227 C19.289,17.62 19.325,17.991 19.386,18.32 L21.665,18.32 C21.726,17.991 21.761,17.62 21.779,17.227" id="Fill-8"></path>
                            <path d="M36.03,6.559 L14.775,0.934 C14.477,0.854 14.17,0.814 13.864,0.814 C12.257,0.814 10.847,1.899 10.434,3.455 L9.102,8.491 L4.211,8.491 C2.254,8.491 0.662,10.084 0.662,12.041 L0.662,25.967 C0.662,27.924 2.254,29.518 4.211,29.518 L26.201,29.518 C27.932,29.518 29.372,28.269 29.683,26.628 L30.651,26.885 C30.948,26.963 31.254,27.003 31.56,27.003 C33.169,27.003 34.581,25.916 34.992,24.359 L38.556,10.896 C39.054,9.003 37.92,7.058 36.03,6.559 L36.03,6.559 Z M4.578,17.538 L9.342,17.538 L9.342,20.471 L4.578,20.471 L4.578,17.538 Z M4.578,22.771 L12.639,22.771 L12.639,23.939 L4.578,23.939 L4.578,22.771 Z M13.326,22.771 L18,22.771 L18,23.939 L13.326,23.939 L13.326,22.771 Z M16.118,16.827 C16.118,14.37 18.096,12.372 20.527,12.372 C22.957,12.372 24.933,14.37 24.933,16.827 C24.933,19.284 22.957,21.282 20.527,21.282 C18.096,21.282 16.118,19.284 16.118,16.827 L16.118,16.827 Z M19.098,22.771 L25.421,22.771 L25.421,23.939 L19.098,23.939 L19.098,22.771 Z M32.38,23.669 C32.263,24.112 31.789,24.388 31.341,24.273 L29.75,23.852 L29.75,14.917 L34.373,16.141 L32.38,23.669 L32.38,23.669 Z M35.944,10.206 L35.216,12.953 L29.694,11.492 C29.429,9.797 27.97,8.491 26.201,8.491 L18.352,8.491 L12.319,6.894 L13.045,4.148 C13.144,3.776 13.481,3.516 13.864,3.516 C13.937,3.516 14.01,3.525 14.084,3.545 L35.339,9.17 C35.792,9.289 36.063,9.756 35.944,10.206 L35.944,10.206 Z" id="Fill-9"></path>
                            <path d="M21.455,19.12 L19.596,19.12 C19.861,19.909 20.231,20.37 20.527,20.37 C20.822,20.37 21.19,19.909 21.455,19.12" id="Fill-10"></path>
                            <path d="M18.473,17.227 L16.956,17.227 C16.999,17.612 17.087,17.98 17.239,18.32 L18.58,18.32 C18.523,17.977 18.489,17.611 18.473,17.227" id="Fill-11"></path>
                            <path d="M18.757,14.535 C18.879,14.106 19.038,13.736 19.223,13.428 C18.635,13.66 18.13,14.046 17.738,14.535 L18.757,14.535" id="Fill-12"></path>
                            <path d="M17.738,19.12 C18.129,19.608 18.635,19.994 19.223,20.227 C19.038,19.918 18.879,19.549 18.757,19.12 L17.738,19.12" id="Fill-13"></path>
                        </g>
                    </g>
                </g>
            </g>
        </g>
    </g>
</svg>