<?xml version="1.0" encoding="UTF-8" standalone="no"?>
<svg width="477px" height="89px" viewBox="0 0 477 89" version="1.1" xmlns="http://www.w3.org/2000/svg" xmlns:xlink="http://www.w3.org/1999/xlink" xmlns:sketch="http://www.bohemiancoding.com/sketch/ns">
    <!-- Generator: Sketch 3.3.2 (12043) - http://www.bohemiancoding.com/sketch -->
    <title>roberto cavalli</title>
    <desc>Created with Sketch.</desc>
    <defs></defs>
    <g id="1920x1024" stroke="none" stroke-width="1" fill="none" fill-rule="evenodd" sketch:type="MSPage">
        <g id="1920x1024---20160718_main" sketch:type="MSArtboardGroup" transform="translate(-722.000000, -491.000000)" fill="#FFFFFF">
            <g id="2-copy-2" sketch:type="MSLayerGroup" transform="translate(-30.000000, 301.000000)">
                <path d="M752.000133,276.436345 L761.304111,276.436345 L761.304111,226.043416 C761.304111,217.694805 766.349646,214.608859 773.913878,214.261453 L773.913878,204.346799 C762.563459,202.303073 751.956707,213.390223 752.000133,226.043416 L752.000133,276.436345 L752.000133,276.436345 Z M906.566133,276.436345 L915.870111,276.436345 L915.870111,226.043416 C915.870111,217.694805 920.912933,214.608859 928.477165,214.261453 L928.477165,204.346799 C917.132174,202.303073 906.519993,213.390223 906.566133,226.043416 L906.566133,276.436345 L906.566133,276.436345 Z M795.002533,203.955967 C798.129191,203.999393 801.304703,204.303374 802.868032,204.867909 C812.21815,208.086847 814.953975,221.651982 815.521225,230.478276 C815.998909,237.437261 815.868631,244.607946 815.086967,251.520791 C814.001322,260.865481 811.957595,269.257517 802.868032,275.217708 C801.652109,276.042799 798.609589,276.563908 795.477503,276.610048 L795.002533,276.610048 L794.522136,276.610048 C791.349338,276.563908 788.347529,276.042799 787.088181,275.217708 C778.001332,269.257517 775.954891,260.865481 774.912672,251.520791 C774.087581,244.607946 773.957304,237.437261 774.432274,230.478276 C774.999523,221.651982 777.784203,208.086847 787.088181,204.867909 C788.65151,204.303374 791.827022,203.999393 795.002533,203.955967 L795.002533,203.955967 Z M794.910254,212.69541 C803.565559,212.69541 805.826415,222.650775 806.260673,228.825381 C806.781782,236.954149 806.694931,245.259333 806.260673,253.694795 C805.956692,259.345578 803.695836,268.389001 795.002533,268.389001 C786.260377,268.389001 783.912669,259.869402 783.738966,253.694795 C783.478411,245.392325 783.434985,237.08714 783.738966,228.825381 C783.956095,222.607349 786.260377,212.69541 794.910254,212.69541 L794.910254,212.69541 Z M972.345367,203.955967 C975.520879,203.999393 978.696391,204.303374 980.259719,204.867909 C989.563698,208.086847 992.304951,221.651982 992.915627,230.478276 C993.349885,237.437261 993.260319,244.607946 992.435229,251.520791 C991.34687,260.865481 989.303143,269.257517 980.259719,275.217708 C979.000371,276.042799 975.998563,276.563908 972.825765,276.610048 L972.345367,276.610048 L971.870397,276.610048 C968.694886,276.563908 965.695791,276.042799 964.433729,275.217708 C955.390305,269.257517 953.349293,260.865481 952.260934,251.520791 C951.479269,244.607946 951.348992,237.437261 951.78325,230.478276 C952.391211,221.651982 955.129751,208.086847 964.433729,204.867909 C966.002486,204.303374 969.175283,203.999393 972.345367,203.955967 L972.345367,203.955967 Z M972.26123,212.69541 C980.913821,212.69541 983.218102,222.650775 983.608934,228.825381 C984.130044,236.954149 984.043192,245.259333 983.608934,253.694795 C983.304954,259.345578 981.087524,268.389001 972.345367,268.389001 C963.611353,268.389001 961.260931,259.869402 961.087228,253.694795 C960.870099,245.392325 960.783247,237.08714 961.087228,228.825381 C961.304357,222.607349 963.611353,212.69541 972.26123,212.69541 L972.26123,212.69541 Z M846.30469,204.086245 C858.043228,207.305182 858.651189,221.651982 859.175013,230.478276 C859.609271,237.437261 859.522419,245.392325 858.740755,252.30517 C857.739247,261.652574 855.348114,269.257517 846.782374,275.217708 C845.566452,276.042799 842.738346,276.563908 839.785392,276.610048 L838.870736,276.610048 C835.868927,276.563908 831.523633,275.909807 829.914164,274.824162 C821.261573,269.040388 820.824601,260.865481 819.825808,251.520791 C819.434975,248.087439 819.348124,244.567234 819.434975,241.041602 L819.434975,190.303981 L829.653609,190.303981 L829.653609,209.218632 C829.781173,209.042214 829.870738,208.911937 829.998302,208.738234 C833.694923,203.521709 840.955174,202.609767 846.30469,204.086245 L846.30469,204.086245 Z M839.218142,212.348003 C850.042024,212.348003 849.56434,222.650775 849.957886,228.825381 C850.43557,236.954149 849.86832,245.259333 849.480202,253.694795 C849.216933,259.345578 847.566753,268.389001 839.304994,268.389001 C831.086661,268.389001 828.869231,259.869402 828.695528,253.694795 C828.434973,245.392325 828.391547,237.08714 828.695528,228.825381 C828.912657,222.607349 831.086661,212.348003 839.218142,212.348003 L839.218142,212.348003 Z M873.217831,253.868498 C883.564029,244.735509 893.91294,235.564523 904.259138,226.390822 C901.175906,203.565135 891.869213,203.084737 884.391833,202.957174 C866.739244,202.693905 863.045337,221.738833 863.262466,240.219226 C863.523021,258.734902 865.129776,263.522597 869.651487,270.041896 C879.520001,284.301843 901.393035,276.610048 903.043215,256.69389 L894.173495,256.69389 C892.5206,271.263246 874.262765,272.650158 873.217831,253.868498 L873.217831,253.868498 Z M872.740147,242.477368 L894.781456,223.432439 C894.651179,214.171887 890.001904,211.520199 882.695513,211.826894 C873.828507,212.1743 871.130679,222.39022 872.740147,242.477368 L872.740147,242.477368 Z M933.913532,191.652895 L944.262444,191.652895 L944.262444,203.434858 L952.130656,203.434858 L952.130656,213.998184 L944.262444,213.998184 L944.262444,276.436345 L933.913532,276.436345 L933.913532,191.652895 L933.913532,191.652895 Z M1032.30283,203.955967 C1035.47834,203.999393 1038.65114,204.303374 1040.21718,204.867909 C1048.65264,207.782866 1050.52267,219.173997 1051.43461,227.867299 L1043.47683,227.867299 C1042.34776,218.652887 1040.43431,212.69541 1032.21869,212.69541 C1023.56339,212.69541 1021.30524,222.607349 1021.04469,228.825381 C1020.738,237.08714 1020.82756,245.392325 1021.04469,253.694795 C1021.21568,259.869402 1023.60953,268.389001 1032.30283,268.389001 C1040.95813,268.389001 1043.2597,259.519281 1043.5664,253.868498 L1051.26091,253.868498 C1050.08841,262.260535 1048.52237,269.740629 1040.21718,275.217708 C1038.95512,276.042799 1035.95602,276.563908 1032.78323,276.610048 L1031.82515,276.610048 C1028.69577,276.563908 1024.39119,275.692678 1023.12913,274.867588 C1014.04499,268.912825 1013.30404,260.865481 1012.2184,251.520791 C1011.43673,244.607946 1011.30374,237.437261 1011.78414,230.478276 C1012.34867,221.651982 1013.99885,207.522311 1024.43462,204.867909 C1026.00066,204.433651 1029.17346,203.999393 1032.30283,203.955967 L1032.30283,203.955967 Z M1087.69787,234.956562 L1087.69787,254.479174 C1087.69787,254.479174 1087.69787,262.436952 1082.73918,266.608543 C1077.73707,270.780134 1073.04437,270.953838 1068.56609,266.304563 C1064.04438,261.609148 1064.56549,253.477666 1068.91349,248.779537 C1073.21536,244.130262 1078.86886,241.782555 1081.87067,239.651977 C1084.86976,237.477972 1087.69787,234.956562 1087.69787,234.956562 L1087.69787,234.956562 Z M1059.69637,231.824476 L1068.21868,231.824476 L1068.21868,222.694201 C1068.21868,219.651681 1070.13213,215.694504 1074.73798,214.128461 C1079.34654,212.608558 1086.04497,213.737629 1086.87006,216.956567 C1088.13213,221.695407 1085.04347,226.477674 1079.87037,230.130869 C1074.69455,233.781351 1064.04438,238.566331 1060.2609,243.73943 C1056.434,248.912529 1054.34685,253.827787 1055.34565,262.654081 C1056.30373,271.480375 1063.30342,277.087732 1069.65173,278.083811 C1075.95662,279.044607 1082.95631,275.953233 1085.04347,274.563607 C1087.17404,273.176696 1087.56488,272.476455 1087.56488,272.476455 L1087.56488,275.953233 L1097.12941,275.953233 L1097.12941,222.694201 C1097.12941,222.694201 1096.95842,204.173096 1078.7413,204.173096 C1060.52417,204.173096 1059.69637,221.869111 1059.69637,224.651076 L1059.69637,231.824476 L1059.69637,231.824476 Z M1168.478,234.956562 L1168.478,254.479174 C1168.478,254.479174 1168.478,262.436952 1163.47589,266.608543 C1158.47921,270.780134 1153.82722,270.953838 1149.34622,266.304563 C1144.82722,261.609148 1145.34833,253.477666 1149.65292,248.779537 C1154.00093,244.130262 1159.65171,241.782555 1162.65352,239.651977 C1165.65261,237.477972 1168.478,234.956562 1168.478,234.956562 L1168.478,234.956562 Z M1140.43579,231.824476 L1148.99882,231.824476 L1148.99882,222.694201 C1148.99882,219.651681 1150.87155,215.694504 1155.4774,214.128461 C1160.08597,212.608558 1166.82782,213.737629 1167.6502,216.956567 C1168.87155,221.695407 1165.82631,226.477674 1160.6505,230.130869 C1155.43398,233.781351 1144.7838,238.566331 1141.00033,243.73943 C1137.21685,248.912529 1135.1297,253.827787 1136.08778,262.654081 C1137.08658,271.480375 1144.08899,277.087732 1150.39116,278.083811 C1156.69604,279.044607 1163.73916,275.953233 1165.82631,274.563607 C1167.91347,273.176696 1168.34772,272.476455 1168.34772,272.476455 L1168.34772,275.953233 L1177.86883,275.953233 L1177.86883,222.694201 C1177.86883,222.694201 1177.73855,204.173096 1159.52143,204.173096 C1141.30431,204.173096 1140.43579,221.869111 1140.43579,224.651076 L1140.43579,231.824476 L1140.43579,231.824476 Z M1099.04286,205.348307 L1108.52054,205.348307 L1119.04315,249.957462 L1130.17373,205.000901 L1139.82512,205.000901 L1123.17403,275.784958 L1114.82542,275.784958 L1099.04286,205.348307 L1099.04286,205.348307 Z M1185.30279,190 L1195.30429,190 L1195.30429,276.262642 L1185.30279,276.262642 L1185.30279,190 Z M1201.6526,190 L1211.61068,190 L1211.61068,276.262642 L1201.6526,276.262642 L1201.6526,190 Z M1218.99849,190 L1229,190 L1229,201.174002 L1218.99849,201.174002 L1218.99849,190 Z M1218.99849,205.825991 L1229,205.825991 L1229,276.259928 L1218.99849,276.259928 L1218.99849,205.825991 Z" id="roberto-cavalli" sketch:type="MSShapeGroup"></path>
            </g>
        </g>
    </g>
</svg>