<?xml version="1.0" encoding="UTF-8" standalone="no"?>
<svg width="63px" height="63px" viewBox="0 0 63 63" version="1.1" xmlns="http://www.w3.org/2000/svg" xmlns:xlink="http://www.w3.org/1999/xlink" xmlns:sketch="http://www.bohemiancoding.com/sketch/ns">
    <!-- Generator: Sketch 3.3.2 (12043) - http://www.bohemiancoding.com/sketch -->
    <title>letter</title>
    <desc>Created with Sketch.</desc>
    <defs></defs>
    <g id="1920x1024" stroke="none" stroke-width="1" fill="none" fill-rule="evenodd" sketch:type="MSPage">
        <g id="1920x1024---20160718_main" sketch:type="MSArtboardGroup" transform="translate(-443.000000, -3067.000000)" fill="#479EAF">
            <g id="плюшки-2" sketch:type="MSLayerGroup" transform="translate(328.000000, 2989.000000)">
                <g id="1" transform="translate(0.000000, 0.906085)" sketch:type="MSShapeGroup">
                    <g id="letter" transform="translate(115.064139, 77.168764)">
                        <path d="M56.2403986,25.746322 L47.6052675,31.6331197 L47.6052675,19.7387695 C47.6052675,19.09784 47.086254,18.5776654 46.4441635,18.5776654 L16.2554572,18.5776654 C15.6133667,18.5776654 15.0943531,19.09784 15.0943531,19.7387695 L15.0943531,31.6331197 L6.45922203,25.746322 C5.92975857,25.3852186 5.20639072,25.5210678 4.84644846,26.0505313 C4.48418398,26.5811559 4.62235537,27.3033626 5.15065773,27.664466 L26.8586597,42.4650598 C28.1184577,43.3231157 29.7335534,43.7527242 31.3498103,43.7527242 C32.9660672,43.7527242 34.581163,43.3231157 35.8409609,42.4650598 L57.5478018,27.664466 C58.0772653,27.3033626 58.2154367,26.5811559 57.8531722,26.0505313 C57.4932299,25.5210678 56.7710232,25.3863797 56.2403986,25.746322 L56.2403986,25.746322 Z M34.5323966,40.5457547 C32.806996,41.7231142 29.8926247,41.7219531 28.167224,40.5457547 L17.2377513,33.0937887 C17.3410895,32.9207842 17.4165613,32.7280409 17.4165613,32.5109144 L17.4165613,20.8998736 L45.2830594,20.8998736 L45.2830594,32.5109144 C45.2830594,32.7280409 45.3585311,32.9207842 45.4618694,33.0937887 L34.5323966,40.5457547 L34.5323966,40.5457547 Z" id="Fill-1"></path>
                        <path d="M60.9335814,21.2911656 L35.7387838,1.91117733 C34.5579409,1.00319393 32.9997392,0.502758069 31.3498103,0.502758069 C29.6998814,0.502758069 28.1416797,1.00319393 26.961998,1.91117733 L1.75675048,21.3004545 C0.754717656,22.0691054 0,23.6435625 0,24.9637379 L0,56.8941002 C0,60.0952642 2.60435647,62.6996207 5.80552043,62.6996207 L56.8941002,62.6996207 C60.0952642,62.6996207 62.6996207,60.0952642 62.6996207,56.8941002 L62.6996207,24.9637379 C62.6996207,23.6447236 61.9402586,22.0656221 60.9335814,21.2911656 L60.9335814,21.2911656 Z M60.3774125,56.8941002 C60.3774125,58.8145664 58.8145664,60.3774125 56.8941002,60.3774125 L5.80552043,60.3774125 C3.88505427,60.3774125 2.32220817,58.8145664 2.32220817,56.8941002 L2.32220817,24.9637379 C2.32220817,24.3727359 2.74136675,23.4717191 3.17097526,23.1431267 L28.3773839,3.7515273 C29.1437126,3.16284753 30.2258616,2.82496624 31.3498103,2.82496624 C32.4737591,2.82496624 33.5570692,3.16284753 34.3233979,3.7515273 L59.5181955,23.1315156 C59.9512873,23.4659136 60.3774125,24.3727359 60.3774125,24.9637379 L60.3774125,56.8941002 L60.3774125,56.8941002 Z" id="Fill-2"></path>
                        <path d="M39.4775389,25.5442899 L23.2220817,25.5442899 C22.5799912,25.5442899 22.0609776,26.0644645 22.0609776,26.705394 C22.0609776,27.3463234 22.5799912,27.8664981 23.2220817,27.8664981 L39.4775389,27.8664981 C40.1196295,27.8664981 40.638643,27.3463234 40.638643,26.705394 C40.638643,26.0644645 40.1196295,25.5442899 39.4775389,25.5442899" id="Fill-3"></path>
                        <path d="M39.4775389,30.1887062 L23.2220817,30.1887062 C22.5799912,30.1887062 22.0609776,30.7088809 22.0609776,31.3498103 C22.0609776,31.9907398 22.5799912,32.5109144 23.2220817,32.5109144 L39.4775389,32.5109144 C40.1196295,32.5109144 40.638643,31.9907398 40.638643,31.3498103 C40.638643,30.7088809 40.1196295,30.1887062 39.4775389,30.1887062" id="Fill-4"></path>
                    </g>
                </g>
            </g>
        </g>
    </g>
</svg>