<?xml version="1.0" encoding="UTF-8" standalone="no"?>
<svg width="64px" height="63px" viewBox="0 0 64 63" version="1.1" xmlns="http://www.w3.org/2000/svg" xmlns:xlink="http://www.w3.org/1999/xlink" xmlns:sketch="http://www.bohemiancoding.com/sketch/ns">
    <!-- Generator: Sketch 3.3.2 (12043) - http://www.bohemiancoding.com/sketch -->
    <title>news</title>
    <desc>Created with Sketch.</desc>
    <defs></defs>
    <g id="1920x1024" stroke="none" stroke-width="1" fill="none" fill-rule="evenodd" sketch:type="MSPage">
        <g id="1920x1024---20160718_main" sketch:type="MSArtboardGroup" transform="translate(-1395.000000, -3067.000000)" fill="#479EAF">
            <g id="плюшки-2" sketch:type="MSLayerGroup" transform="translate(328.000000, 2989.000000)">
                <g id="4" transform="translate(953.585440, 0.906085)" sketch:type="MSShapeGroup">
                    <g id="news" transform="translate(114.375132, 77.168764)">
                        <path d="M56.8941002,5.80552043 L48.7663716,5.80552043 L48.7663716,3.48331226 C48.7663716,1.5628461 47.2035255,0 45.2830594,0 L44.1219553,0 C42.2014891,0 40.638643,1.5628461 40.638643,3.48331226 L40.638643,5.80552043 L22.0609776,5.80552043 L22.0609776,3.48331226 C22.0609776,1.5628461 20.4981315,0 18.5776654,0 L17.4165613,0 C15.4960951,0 13.933249,1.5628461 13.933249,3.48331226 L13.933249,5.80552043 L5.80552043,5.80552043 C2.60435647,5.80552043 0,8.4098769 0,11.6110409 L0,56.8941002 C0,60.0952642 2.60435647,62.6996207 5.80552043,62.6996207 L56.8941002,62.6996207 C60.0952642,62.6996207 62.6996207,60.0952642 62.6996207,56.8941002 L62.6996207,11.6110409 C62.6996207,8.4098769 60.0952642,5.80552043 56.8941002,5.80552043 L56.8941002,5.80552043 Z M5.80552043,8.12772861 L13.933249,8.12772861 L13.933249,10.4499368 C13.933249,12.3704029 15.4960951,13.933249 17.4165613,13.933249 L20.8998736,13.933249 C21.540803,13.933249 22.0609776,13.4130744 22.0609776,12.772145 C22.0609776,12.1312155 21.540803,11.6110409 20.8998736,11.6110409 L17.4165613,11.6110409 C16.7767929,11.6110409 16.2554572,11.0897051 16.2554572,10.4499368 L16.2554572,3.48331226 C16.2554572,2.84354391 16.7767929,2.32220817 17.4165613,2.32220817 L18.5776654,2.32220817 C19.2174337,2.32220817 19.7387695,2.84354391 19.7387695,3.48331226 L19.7387695,5.80552043 C19.09784,5.80552043 18.5776654,6.32569506 18.5776654,6.96662452 C18.5776654,7.60755397 19.09784,8.12772861 19.7387695,8.12772861 L40.638643,8.12772861 L40.638643,10.4499368 C40.638643,12.3704029 42.2014891,13.933249 44.1219553,13.933249 L47.6052675,13.933249 C48.246197,13.933249 48.7663716,13.4130744 48.7663716,12.772145 C48.7663716,12.1312155 48.246197,11.6110409 47.6052675,11.6110409 L44.1219553,11.6110409 C43.4821869,11.6110409 42.9608512,11.0897051 42.9608512,10.4499368 L42.9608512,3.48331226 C42.9608512,2.84354391 43.4821869,2.32220817 44.1219553,2.32220817 L45.2830594,2.32220817 C45.9228277,2.32220817 46.4441635,2.84354391 46.4441635,3.48331226 L46.4441635,5.80552043 C45.803234,5.80552043 45.2830594,6.32569506 45.2830594,6.96662452 C45.2830594,7.60755397 45.803234,8.12772861 46.4441635,8.12772861 L56.8941002,8.12772861 C58.8145664,8.12772861 60.3774125,9.69057471 60.3774125,11.6110409 L60.3774125,20.8998736 L2.32220817,20.8998736 L2.32220817,11.6110409 C2.32220817,9.69057471 3.88505427,8.12772861 5.80552043,8.12772861 L5.80552043,8.12772861 Z M56.8941002,60.3774125 L5.80552043,60.3774125 C3.88505427,60.3774125 2.32220817,58.8145664 2.32220817,56.8941002 L2.32220817,23.2220817 L60.3774125,23.2220817 L60.3774125,56.8941002 C60.3774125,58.8145664 58.8145664,60.3774125 56.8941002,60.3774125 L56.8941002,60.3774125 Z" id="Fill-1"></path>
                        <path d="M17.8810029,35.0653434 C17.3677949,35.4496689 17.2644567,36.1776811 17.6487821,36.6908891 C18.0331076,37.2040971 18.7599587,37.3097576 19.2743278,36.92311 L22.0609776,34.8331226 L22.0609776,51.0885798 C22.0609776,51.7295093 22.5811523,52.2496839 23.2220817,52.2496839 C23.8630112,52.2496839 24.3831858,51.7295093 24.3831858,51.0885798 L24.3831858,32.5109144 L22.5254193,31.5820312 L17.8810029,35.0653434" id="Fill-2"></path>
                        <path d="M38.1120805,39.556494 L35.9942267,39.5054054 L35.9942267,34.8331226 L42.9608512,34.8331226 C43.6017807,34.8331226 44.1219553,34.312948 44.1219553,33.6720185 C44.1219553,33.0310891 43.6017807,32.5109144 42.9608512,32.5109144 L33.6720185,32.5109144 L33.6720185,41.7718806 L38.084214,41.8775411 C40.2601231,41.8775411 42.0308068,43.6482248 42.0308068,45.825295 C42.0308068,48.001204 40.2601231,49.7718878 38.084214,49.7718878 C36.5469122,49.7718878 35.138493,48.8685488 34.4964024,47.4705795 C34.2270263,46.8865441 33.5361693,46.6311012 32.9567784,46.8993163 C32.3739041,47.1675313 32.1184612,47.856066 32.3855152,48.4389403 C33.4049646,50.6589713 35.641251,52.0940959 38.084214,52.0940959 C41.5408209,52.0940959 44.353015,49.2819018 44.353015,45.825295 C44.353015,42.3686881 41.5408209,39.5553329 38.1120805,39.556494" id="Fill-3"></path>
                    </g>
                </g>
            </g>
        </g>
    </g>
</svg>