<?xml version="1.0" encoding="UTF-8" standalone="no"?>
<svg width="51px" height="63px" viewBox="0 0 51 63" version="1.1" xmlns="http://www.w3.org/2000/svg" xmlns:xlink="http://www.w3.org/1999/xlink" xmlns:sketch="http://www.bohemiancoding.com/sketch/ns">
    <!-- Generator: Sketch 3.3.2 (12043) - http://www.bohemiancoding.com/sketch -->
    <title>Imported Layers</title>
    <desc>Created with Sketch.</desc>
    <defs></defs>
    <g id="1920x1024" stroke="none" stroke-width="1" fill="none" fill-rule="evenodd" sketch:type="MSPage">
        <g id="1920x1024---20160718_main" sketch:type="MSArtboardGroup" transform="translate(-1083.000000, -2709.000000)" fill="#FFEF2B">
            <g id="плюшки" sketch:type="MSLayerGroup" transform="translate(328.000000, 2540.000000)">
                <g id="Imported-Layers" transform="translate(755.000000, 169.000000)" sketch:type="MSShapeGroup">
                    <path d="M44.7854433,8.03841291 L36.7470304,8.03841291 C36.6873165,8.03841291 36.635641,8.06252815 36.5793721,8.0717149 C36.1912316,6.72011319 35.1324578,5.7417235 33.8761687,5.7417235 C33.4960666,5.7417235 32.694522,5.14802929 32.3660954,4.33040787 L31.7769946,2.85363658 C31.1350699,1.25399241 29.2827899,0 27.5602728,0 L24.1152387,0 C22.3927217,0 20.5404417,1.25399241 19.898517,2.85478493 L19.3094161,4.33040787 C18.9809896,5.14802929 18.179445,5.7417235 17.7993429,5.7417235 C16.5430538,5.7417235 15.4842799,6.72011319 15.0961394,8.0717149 C15.0398705,8.06252815 14.988195,8.03841291 14.9284811,8.03841291 L5.7417235,8.03841291 C2.57573716,8.03841291 0,10.6141501 0,13.7801364 L0,56.2688903 C0,59.4348767 2.57573716,62.0106139 5.7417235,62.0106139 L44.7854433,62.0106139 C47.9514297,62.0106139 50.5271668,59.4348767 50.5271668,56.2688903 L50.5271668,13.7801364 C50.5271668,10.6141501 47.9514297,8.03841291 44.7854433,8.03841291 L44.7854433,8.03841291 Z M17.2251705,9.18675761 C17.2251705,8.48626734 17.6018276,8.03841291 17.7993429,8.03841291 C19.2232903,8.03841291 20.7896325,6.81198077 21.4418923,5.18362798 L22.0309931,3.70915338 C22.3261177,2.9696194 23.3205842,2.2966894 24.1152387,2.2966894 L27.5602728,2.2966894 C28.3549274,2.2966894 29.3493939,2.9696194 29.6445185,3.70800504 L30.2336193,5.18477632 C30.3105584,5.37654989 30.4035743,5.56258173 30.5034803,5.7417235 L28.7086175,5.7417235 C28.0735829,5.7417235 27.5602728,6.25503359 27.5602728,6.89006821 C27.5602728,7.52510283 28.0735829,8.03841291 28.7086175,8.03841291 L33.3019963,8.03841291 C33.3720454,8.03841291 33.4306109,8.01085263 33.4972149,7.99936919 C33.6235328,8.01659436 33.7509991,8.03841291 33.8761687,8.03841291 C34.073684,8.03841291 34.450341,8.48626734 34.450341,9.18675761 L34.450341,10.3351023 C34.450341,10.9689886 33.9358826,11.483447 33.3019963,11.483447 L18.3735152,11.483447 C17.7396289,11.483447 17.2251705,10.9689886 17.2251705,10.3351023 L17.2251705,9.18675761 L17.2251705,9.18675761 Z M48.2304774,56.2688903 C48.2304774,58.1682525 46.6848055,59.7139244 44.7854433,59.7139244 L5.7417235,59.7139244 C3.84236137,59.7139244 2.2966894,58.1682525 2.2966894,56.2688903 L2.2966894,13.7801364 C2.2966894,11.8807743 3.84236137,10.3351023 5.7417235,10.3351023 L14.9284811,10.3351023 C14.9284811,12.2344644 16.4741531,13.7801364 18.3735152,13.7801364 L33.3019963,13.7801364 C35.2013585,13.7801364 36.7470304,12.2344644 36.7470304,10.3351023 L44.7854433,10.3351023 C46.6848055,10.3351023 48.2304774,11.8807743 48.2304774,13.7801364 L48.2304774,56.2688903 L48.2304774,56.2688903 Z" id="Fill-1"></path>
                    <path d="M22.966894,28.7086175 C22.3318594,28.7086175 21.8185493,29.2219276 21.8185493,29.8569622 L21.8185493,32.1536516 L12.6317917,32.1536516 L12.6317917,22.966894 L19.5218599,22.966894 C20.1568945,22.966894 20.6702046,22.4535839 20.6702046,21.8185493 C20.6702046,21.1835147 20.1568945,20.6702046 19.5218599,20.6702046 L11.483447,20.6702046 C10.8484124,20.6702046 10.3351023,21.1835147 10.3351023,21.8185493 L10.3351023,33.3019963 C10.3351023,33.9370309 10.8484124,34.450341 11.483447,34.450341 L22.966894,34.450341 C23.6019286,34.450341 24.1152387,33.9370309 24.1152387,33.3019963 L24.1152387,29.8569622 C24.1152387,29.2219276 23.6019286,28.7086175 22.966894,28.7086175" id="Fill-2"></path>
                    <path d="M25.5437795,19.9260773 L18.8868253,27.6165417 L15.7403608,24.4873024 C15.291358,24.039448 14.5656042,24.0750467 14.1166014,24.5240494 C13.6675986,24.9719039 13.6675986,25.7700034 14.1166014,26.2190062 L18.1358079,30.3817558 C18.3516967,30.5964962 18.6433762,31.0053069 18.9476876,31.0053069 C18.9614677,31.0053069 18.9740995,31.0053069 18.989028,29.8569622 C19.3071195,29.8569622 19.6068374,29.9890219 19.8158362,29.7490178 L27.2800767,21.4246671 C27.6946292,20.944659 27.6429536,20.2223502 27.1640939,19.8066494 C26.6840858,19.392097 25.961777,19.4472175 25.5437795,19.9260773" id="Fill-3"></path>
                    <path d="M39.0437198,27.5602728 L32.1536516,27.5602728 C31.518617,27.5602728 31.0053069,28.0735829 31.0053069,28.7086175 C31.0053069,29.3436521 31.518617,29.8569622 32.1536516,29.8569622 L39.0437198,29.8569622 C39.6787545,29.8569622 40.1920645,29.3436521 40.1920645,28.7086175 C40.1920645,28.0735829 39.6787545,27.5602728 39.0437198,27.5602728" id="Fill-4"></path>
                    <path d="M22.966894,40.1920645 L11.483447,40.1920645 C10.8484124,40.1920645 10.3351023,40.7053746 10.3351023,41.3404092 L10.3351023,52.8238562 C10.3351023,53.4588909 10.8484124,53.9722009 11.483447,53.9722009 L22.966894,53.9722009 C23.6019286,53.9722009 24.1152387,53.4588909 24.1152387,52.8238562 L24.1152387,41.3404092 C24.1152387,40.7053746 23.6019286,40.1920645 22.966894,40.1920645 L22.966894,40.1920645 Z M12.6317917,42.4887539 L21.8185493,42.4887539 L21.8185493,51.6755115 L12.6317917,51.6755115 L12.6317917,42.4887539 Z" id="Fill-5"></path>
                    <path d="M39.0437198,45.933788 L32.1536516,45.933788 C31.518617,45.933788 31.0053069,46.4470981 31.0053069,47.0821327 C31.0053069,47.7171674 31.518617,48.2304774 32.1536516,48.2304774 L39.0437198,48.2304774 C39.6787545,48.2304774 40.1920645,47.7171674 40.1920645,47.0821327 C40.1920645,46.4470981 39.6787545,45.933788 39.0437198,45.933788" id="Fill-6"></path>
                </g>
            </g>
        </g>
    </g>
</svg>