<?xml version="1.0" encoding="UTF-8" standalone="no"?>
<svg width="64px" height="61px" viewBox="0 0 64 61" version="1.1" xmlns="http://www.w3.org/2000/svg" xmlns:xlink="http://www.w3.org/1999/xlink" xmlns:sketch="http://www.bohemiancoding.com/sketch/ns">
    <!-- Generator: Sketch 3.3.2 (12043) - http://www.bohemiancoding.com/sketch -->
    <title>quote</title>
    <desc>Created with Sketch.</desc>
    <defs></defs>
    <g id="1920x1024" stroke="none" stroke-width="1" fill="none" fill-rule="evenodd" sketch:type="MSPage">
        <g id="1920x1024---20160718_main" sketch:type="MSArtboardGroup" transform="translate(-759.000000, -3068.000000)" fill="#479EAF">
            <g id="плюшки-2" sketch:type="MSLayerGroup" transform="translate(328.000000, 2989.000000)">
                <g id="2" transform="translate(315.565124, 0.906085)" sketch:type="MSShapeGroup">
                    <g id="quote" transform="translate(116.000000, 78.000000)">
                        <path d="M31.8219076,0.0900940215 C14.6085395,0.0900940215 0.496480452,11.8555617 0.362953482,26.315952 C0.280515092,35.2610979 3.7220276,41.6901312 11.5176804,47.1484815 C11.6291464,47.2576253 11.7464179,47.3795413 11.8276952,47.4724296 C12.0645605,50.7699652 10.0245006,54.5029148 5.75976528,58.5749069 L5.45671711,58.8675051 C5.1130303,59.2111919 5.02014197,59.7336887 5.22333519,60.1749083 C5.41375626,60.5882613 5.82710931,60.8495098 6.2776177,60.8495098 C6.3066453,60.8495098 6.33799511,60.8680874 6.36818382,60.8657652 C15.3028798,60.1644584 24.4198691,53.6018981 26.0454148,52.3780943 L26.7525272,52.3037837 C27.788232,52.4384718 30.7467252,52.7217812 31.8184243,52.7217812 L31.8219076,52.7217812 C49.1688027,52.7217812 63.2808617,40.872714 63.2808617,26.4065181 C63.2808617,11.9391612 49.1688027,0.0900940215 31.8219076,0.0900940215 L31.8219076,0.0900940215 Z M31.7452747,50.2416628 C30.7432419,50.2416628 27.5293058,50.0059587 26.9371427,49.9061037 C26.8129046,49.8852039 26.6851831,49.8840428 26.5597839,49.9037815 L25.389391,50.0918804 C25.1966477,50.1220691 25.0143543,50.2021853 24.8587664,50.3229401 C24.7751669,50.3879619 17.3905449,56.0854997 9.55541453,57.9792605 C12.9620939,54.0988506 14.4935902,50.3972508 14.111587,46.9441272 C14.101137,46.8500778 14.0790761,46.7583506 14.045404,46.6701067 C13.9989599,46.5435463 13.8573052,46.1580598 13.0503378,45.4010199 C13.0096992,45.3627035 12.9655772,45.3267092 12.9191331,45.2953594 C5.67036026,40.2422344 2.60968989,34.5737243 2.68516165,26.338013 C2.80707758,13.1455484 15.8776263,2.41230219 31.8219076,2.41230219 C47.8881048,2.41230219 60.9586535,13.140904 60.9586535,26.3275631 C60.9586535,39.5130611 47.8881048,50.2416628 31.7452747,50.2416628 L31.7452747,50.2416628 Z" id="Fill-1"></path>
                        <path d="M18.4692106,22.5330749 C15.907815,22.5330749 13.8247943,24.6160956 13.8247943,27.1774913 C13.8247943,29.7388869 15.907815,31.8219076 18.4692106,31.8219076 C21.0306062,31.8219076 23.113627,29.7388869 23.113627,27.1774913 C23.113627,24.6160956 21.0306062,22.5330749 18.4692106,22.5330749 L18.4692106,22.5330749 Z M18.4692106,29.4996994 C17.1896739,29.4996994 16.1470024,28.4581891 16.1470024,27.1774913 C16.1470024,25.8967934 17.1896739,24.8552831 18.4692106,24.8552831 C19.7499084,24.8552831 20.7914188,25.8967934 20.7914188,27.1774913 C20.7914188,28.4581891 19.7499084,29.4996994 18.4692106,29.4996994 L18.4692106,29.4996994 Z" id="Fill-2"></path>
                        <path d="M31.2413556,22.5330749 C28.6799599,22.5330749 26.5969392,24.6160956 26.5969392,27.1774913 C26.5969392,29.7388869 28.6799599,31.8219076 31.2413556,31.8219076 C33.8027512,31.8219076 35.8857719,29.7388869 35.8857719,27.1774913 C35.8857719,24.6160956 33.8027512,22.5330749 31.2413556,22.5330749 L31.2413556,22.5330749 Z M31.2413556,29.4996994 C29.9618189,29.4996994 28.9191474,28.4581891 28.9191474,27.1774913 C28.9191474,25.8967934 29.9618189,24.8552831 31.2413556,24.8552831 C32.5220534,24.8552831 33.5635637,25.8967934 33.5635637,27.1774913 C33.5635637,28.4581891 32.5220534,29.4996994 31.2413556,29.4996994 L31.2413556,29.4996994 Z" id="Fill-3"></path>
                        <path d="M44.0135005,22.5330749 C41.4521049,22.5330749 39.3690842,24.6160956 39.3690842,27.1774913 C39.3690842,29.7388869 41.4521049,31.8219076 44.0135005,31.8219076 C46.5748961,31.8219076 48.6579169,29.7388869 48.6579169,27.1774913 C48.6579169,24.6160956 46.5748961,22.5330749 44.0135005,22.5330749 L44.0135005,22.5330749 Z M44.0135005,29.4996994 C42.7328027,29.4996994 41.6912923,28.4581891 41.6912923,27.1774913 C41.6912923,25.8967934 42.7328027,24.8552831 44.0135005,24.8552831 C45.2930372,24.8552831 46.3357087,25.8967934 46.3357087,27.1774913 C46.3357087,28.4581891 45.2930372,29.4996994 44.0135005,29.4996994 L44.0135005,29.4996994 Z" id="Fill-4"></path>
                    </g>
                </g>
            </g>
        </g>
    </g>
</svg>