<?xml version="1.0" encoding="UTF-8" standalone="no"?>
<svg width="61px" height="62px" viewBox="0 0 61 62" version="1.1" xmlns="http://www.w3.org/2000/svg" xmlns:xlink="http://www.w3.org/1999/xlink" xmlns:sketch="http://www.bohemiancoding.com/sketch/ns">
    <!-- Generator: Sketch 3.3.2 (12043) - http://www.bohemiancoding.com/sketch -->
    <title>Imported Layers</title>
    <desc>Created with Sketch.</desc>
    <defs></defs>
    <g id="1920x1024" stroke="none" stroke-width="1" fill="none" fill-rule="evenodd" sketch:type="MSPage">
        <g id="1920x1024---20160718_main" sketch:type="MSArtboardGroup" transform="translate(-1399.000000, -2708.000000)" fill="#FFEF2B">
            <g id="плюшки" sketch:type="MSLayerGroup" transform="translate(328.000000, 2540.000000)">
                <g id="Imported-Layers" transform="translate(1071.000000, 168.000000)" sketch:type="MSShapeGroup">
                    <path d="M29.459635,47.8469303 C29.6778205,48.0903794 29.9890219,48.2304774 30.3163001,48.2304774 C30.6481717,48.248851 30.9605215,48.089231 31.178707,47.8400402 C31.5737376,47.3910375 40.9143733,36.6965033 46.0681444,24.8834813 C47.2015606,22.5144462 47.7768813,20.001868 47.7768813,17.4146474 C47.7768813,7.812189 39.9176101,0 30.2577345,0 C20.5967106,0 12.7374394,7.812189 12.7374394,17.4146474 C12.7374394,20.0420601 13.3035734,22.5546383 14.4048359,24.8478826 C19.5746838,36.6999483 29.0577143,47.3967792 29.459635,47.8469303 L29.459635,47.8469303 Z M30.2577345,2.2966894 C38.6509859,2.2966894 45.4801919,9.07881321 45.4801919,17.4146474 C45.4801919,19.6562162 44.9806619,21.8357745 43.9793054,23.9292069 C39.8487095,33.3950122 32.7542359,42.3635844 30.3105584,45.3113852 C27.8358756,42.3693261 20.6369026,33.3927156 16.4925266,23.8913115 C15.524472,21.8736699 15.0341288,19.69526 15.0341288,17.4146474 C15.0341288,9.07881321 21.8633348,2.2966894 30.2577345,2.2966894 L30.2577345,2.2966894 Z" id="Fill-1"></path>
                    <path d="M30.2565862,25.5322961 C34.8396299,25.5322961 38.5683051,21.8047692 38.5683051,17.2217255 C38.5683051,12.6398301 34.8396299,8.91115488 30.2565862,8.91115488 C25.6746908,8.91115488 21.9460156,12.6398301 21.9460156,17.2217255 C21.9460156,21.8047692 25.6746908,25.5322961 30.2565862,25.5322961 L30.2565862,25.5322961 Z M30.2565862,11.2078443 C33.5730057,11.2078443 36.2704674,13.905306 36.2704674,17.2217255 C36.2704674,20.538145 33.5730057,23.2356067 30.2565862,23.2356067 C26.9401667,23.2356067 24.242705,20.538145 24.242705,17.2217255 C24.242705,13.905306 26.9401667,11.2078443 30.2565862,11.2078443 L30.2565862,11.2078443 Z" id="Fill-2"></path>
                    <path d="M60.1365153,60.5728863 L53.2464471,34.1609582 C53.1545795,33.807268 52.899647,33.5201818 52.5620337,33.3835288 L46.8203101,31.0868394 L45.9659417,33.2204639 L51.1702399,35.3012645 L57.2748403,58.7033811 L45.7580913,52.9455808 C45.4468899,52.7894059 45.0805679,52.7836642 44.7636248,52.929504 L30.3163001,59.5967933 L15.8689754,52.929504 C15.5531806,52.7836642 15.1868587,52.7894059 14.8745089,52.9455808 L3.35775991,58.7033811 L9.46236034,35.3012645 L14.6666585,33.2204639 L13.8122901,31.0868394 L8.07056656,33.3835288 C7.73295322,33.5201818 7.47802069,33.807268 7.38615312,34.1609582 L0.496084911,60.5728863 C0.382398785,61.0081089 0.533980286,61.4708918 0.88422542,61.754533 C1.2356189,62.0381741 1.71907202,62.090998 2.12099266,61.8900377 L15.4073409,55.2457152 L29.8351437,61.9049661 C30.1406034,62.0450642 30.4919968,62.0450642 30.7974565,61.9049661 L45.2252594,55.2457152 L58.5116075,61.8900377 C58.6735242,61.9704218 58.8503692,62.0106139 59.0249176,62.0106139 C59.2832952,62.0106139 59.5393761,61.9233397 59.7483748,61.754533 C60.0986199,61.4708918 60.2502014,61.0081089 60.1365153,60.5728863" id="Fill-3"></path>
                </g>
            </g>
        </g>
    </g>
</svg>