<?xml version="1.0" encoding="UTF-8" standalone="no"?>
<svg width="50px" height="50px" viewBox="0 0 50 50" version="1.1" xmlns="http://www.w3.org/2000/svg" xmlns:xlink="http://www.w3.org/1999/xlink" xmlns:sketch="http://www.bohemiancoding.com/sketch/ns">
    <!-- Generator: Sketch 3.3.2 (12043) - http://www.bohemiancoding.com/sketch -->
    <title>Imported Layers</title>
    <desc>Created with Sketch.</desc>
    <defs></defs>
    <g id="1920x1024" stroke="none" stroke-width="1" fill="none" fill-rule="evenodd" sketch:type="MSPage">
        <g id="1920x1024---20160718_main" sketch:type="MSArtboardGroup" transform="translate(-1489.000000, -142.000000)" fill="#424242">
            <g id="Header-Copy" sketch:type="MSLayerGroup" transform="translate(-16.000000, 57.000000)">
                <g id="Cart" transform="translate(1504.000000, 77.000000)" sketch:type="MSShapeGroup">
                    <g id="Imported-Layers" transform="translate(0.495149, 8.711624)">
                        <path d="M49.1754103,36.1368207 L25.9276234,40.4296716 C24.9518084,38.5347044 22.9965237,37.2343457 20.7452052,37.2343457 C20.6337357,37.2343457 20.525921,37.2454598 20.4171925,37.2519431 L12.7385885,3.63155737 C12.4626558,2.42381679 11.7390177,1.41242667 10.6992448,0.783549486 C9.66129928,0.154672298 8.43970318,-0.0120403585 7.2583092,0.313975503 L1.58615619,1.8847792 C1.18139398,1.99684715 0.931044445,2.37102445 0.929217076,2.77669191 C0.896324436,2.93136421 0.887187592,3.09251978 0.938353921,3.25460153 L1.98086787,6.53050523 C2.10512895,6.92042761 2.46146588,7.17234896 2.84978177,7.17234896 C2.91556705,7.17234896 2.9831797,7.16493951 3.05079235,7.15012061 L8.15828837,5.98776292 C8.65076429,5.87569496 8.96050331,5.38111408 8.84903381,4.88190229 C8.73847799,4.38176432 8.24782945,4.06778882 7.75809459,4.18078296 L3.46377772,5.15697818 L2.91648074,3.43705927 L7.7398209,2.10150565 C8.43604844,1.90793374 9.15420441,2.00518279 9.76271825,2.37380299 C10.3712321,2.7424232 10.7960954,3.33795786 10.9587312,4.04926519 L18.6309394,37.6418655 C16.4499747,38.5032142 14.8985385,40.6501028 14.8985385,43.1619068 C14.8985385,46.4294749 17.5208128,49.0876156 20.7452052,49.0876156 C23.9686839,49.0876156 26.5909583,46.4294749 26.5909583,43.1619068 C26.5909583,42.8349648 26.5580656,42.5163583 26.507813,42.2042352 L49.5025093,37.9576934 C49.9995537,37.8669276 50.3284801,37.3843871 50.2380253,36.8805444 C50.1475705,36.378554 49.6733683,36.0395716 49.1754103,36.1368207 L49.1754103,36.1368207 Z M20.7452052,47.2352527 C18.5286068,47.2352527 16.7259074,45.4078968 16.7259074,43.1619068 C16.7259074,40.9149907 18.5286068,39.0867085 20.7452052,39.0867085 C22.96089,39.0867085 24.7635894,40.9149907 24.7635894,43.1619068 C24.7635894,45.4078968 22.96089,47.2352527 20.7452052,47.2352527 L20.7452052,47.2352527 Z" id="Fill-1"></path>
                        <path d="M20.7452052,41.8652528 C20.0389272,41.8652528 19.4669607,42.4450424 19.4669607,43.1619068 C19.4669607,43.8769189 20.0389272,44.4567084 20.7452052,44.4567084 C21.4505696,44.4567084 22.0225361,43.8769189 22.0225361,43.1619068 C22.0225361,42.4450424 21.4505696,41.8652528 20.7452052,41.8652528" id="Fill-2"></path>
                        <path d="M24.0646208,34.2946458 C24.3323303,35.5950045 25.479918,36.5387834 26.7937962,36.5387834 C26.9600868,36.5387834 27.1282047,36.5239645 27.295409,36.4915482 L44.9002808,33.1795234 C45.6211778,33.0433747 46.2433969,32.6293716 46.6509002,32.013461 C47.0584034,31.3966241 47.2000245,30.6566052 47.0501803,29.9286266 L43.5525962,12.9489425 C43.2510804,11.4846497 41.8175095,10.4714072 40.3208944,10.7520402 L22.7169363,14.0659173 C21.9960392,14.202066 21.3738201,14.6160691 20.9663169,15.2319797 C20.5588136,15.8478904 20.4171925,16.5888355 20.5670368,17.3168141 L24.0646208,34.2946458 L24.0646208,34.2946458 Z M35.1485268,16.9120728 L30.9382689,17.7150721 L30.1716876,14.5466055 L34.5162571,13.7287873 L35.1485268,16.9120728 L35.1485268,16.9120728 Z M22.4839467,16.2637458 C22.6155173,16.065543 22.8174415,15.9312467 23.0513448,15.88679 L28.3726429,14.8855879 L29.3703864,19.0080214 C29.4718053,19.4294339 29.8436749,19.7137716 30.2566603,19.7137716 C30.312395,19.7137716 30.3690434,19.7082146 30.4266056,19.6980266 L36.395706,18.5588234 C36.636005,18.5134405 36.8479798,18.3717348 36.9841188,18.1661225 C37.1202578,17.9614364 37.1705104,17.7085889 37.1220851,17.4659293 L36.3134744,13.3916572 L40.6553029,12.573839 C40.7110376,12.563651 40.7676861,12.5580939 40.8234208,12.5580939 C41.2683851,12.5580939 41.6731473,12.8887407 41.7636021,13.3277507 L45.2611861,30.3065086 C45.3096114,30.5436111 45.2639272,30.7825659 45.1323566,30.9816949 C45.0007861,31.1798977 44.7997755,31.314194 44.5658723,31.3577245 L26.9619142,34.6706755 C26.4603014,34.7660722 25.9550339,34.4104185 25.8536149,33.9167638 L22.3560309,16.9389321 C22.3076056,16.7018296 22.3523762,16.4619487 22.4839467,16.2637458 L22.4839467,16.2637458 Z" id="Fill-3"></path>
                    </g>
                </g>
            </g>
        </g>
    </g>
</svg>