<?xml version="1.0" encoding="UTF-8" standalone="no"?>
<svg width="37px" height="36px" viewBox="0 0 37 36" version="1.1" xmlns="http://www.w3.org/2000/svg" xmlns:xlink="http://www.w3.org/1999/xlink" xmlns:sketch="http://www.bohemiancoding.com/sketch/ns">
    <!-- Generator: Sketch 3.3.2 (12043) - http://www.bohemiancoding.com/sketch -->
    <title>нал</title>
    <desc>Created with Sketch.</desc>
    <defs></defs>
    <g id="1920x1024" stroke="none" stroke-width="1" fill="none" fill-rule="evenodd" sketch:type="MSPage">
        <g id="1920x1024---20160718_card" sketch:type="MSArtboardGroup" transform="translate(-1011.000000, -976.000000)" fill="#C8C8C8">
            <g id="карточка" sketch:type="MSLayerGroup" transform="translate(325.000000, 341.000000)">
                <g id="оплата-и-доставка" transform="translate(536.000000, 635.000000)" sketch:type="MSShapeGroup">
                    <g id="Оплата-наличными-+-наличные-+-карта">
                        <g id="нал" transform="translate(150.000000, 0.000000)">
                            <path d="M24.55,15.004 C24.928,15.004 25.301,14.903 25.629,14.712 C26.652,14.117 27,12.8 26.405,11.775 C25.831,10.792 24.458,10.421 23.468,11 C22.972,11.289 22.619,11.753 22.472,12.309 C22.326,12.863 22.405,13.441 22.693,13.937 C23.076,14.595 23.787,15.004 24.55,15.004 L24.55,15.004 Z M23.17,12.492 C23.267,12.124 23.502,11.815 23.832,11.623 C24.049,11.497 24.296,11.43 24.546,11.43 C25.053,11.43 25.527,11.701 25.781,12.139 C26.176,12.818 25.945,13.693 25.266,14.089 C24.606,14.472 23.697,14.227 23.317,13.573 C23.125,13.244 23.073,12.86 23.17,12.492 L23.17,12.492 Z" id="Fill-1"></path>
                            <path d="M36.171,16.395 L27.21,1.002 C26.878,0.434 26.15,0.239 25.581,0.572 L6.064,11.933 L5.554,11.933 C5.294,11.924 2.978,11.869 1.431,13.354 C0.595,14.155 0.153,15.265 0.153,16.56 L0.153,34.779 C0.153,35.438 0.687,35.971 1.344,35.971 L25.114,35.971 C26.088,35.971 26.947,35.495 27.493,34.771 C29.978,34.227 31.72,32.263 31.72,29.772 L31.72,20.364 L35.741,18.024 C36.014,17.865 36.213,17.604 36.294,17.299 C36.375,16.994 36.331,16.669 36.171,16.395 L36.171,16.395 Z M10.425,13.947 L23.436,6.373 C24.042,7.185 25.245,7.468 26.148,6.999 L30.433,14.356 C29.546,14.932 29.215,16.07 29.637,17.025 L28.062,17.942 C28.081,18.08 28.104,18.217 28.104,18.359 C28.104,16.71 26.763,15.368 25.114,15.368 L22.138,15.368 C22.031,15.07 21.904,14.775 21.739,14.492 C20.305,12.028 17.146,11.192 14.682,12.628 C13.583,13.267 12.83,14.257 12.436,15.368 L10.53,15.368 C10.654,14.906 10.628,14.404 10.425,13.947 L10.425,13.947 Z M23.033,19.612 L22.865,19.612 C22.666,19.612 22.504,19.45 22.504,19.251 C22.504,19.052 22.666,18.89 22.865,18.89 L23.033,18.89 C23.503,18.89 23.886,19.273 23.886,19.744 L23.886,19.994 C23.886,20.193 23.724,20.355 23.525,20.355 C23.326,20.355 23.164,20.193 23.164,19.994 L23.164,19.744 C23.164,19.671 23.105,19.612 23.033,19.612 L23.033,19.612 Z M23.139,31.673 L23.164,30.715 C23.164,30.516 23.326,30.353 23.525,30.353 C23.724,30.353 23.886,30.516 23.886,30.715 L23.886,31.595 C23.886,31.777 23.829,31.951 23.721,32.099 C23.65,32.195 23.54,32.247 23.429,32.247 C23.355,32.247 23.281,32.224 23.216,32.177 C23.056,32.06 23.021,31.833 23.139,31.673 L23.139,31.673 Z M4.732,21.006 C4.931,21.006 5.093,21.168 5.093,21.367 L5.093,22.559 C5.093,22.758 4.931,22.92 4.732,22.92 C4.533,22.92 4.371,22.758 4.371,22.559 L4.371,21.367 C4.371,21.168 4.533,21.006 4.732,21.006 L4.732,21.006 Z M4.371,20.176 L4.371,19.251 C4.371,19.052 4.533,18.89 4.732,18.89 L4.998,18.89 C5.197,18.89 5.359,19.052 5.359,19.251 C5.359,19.418 5.246,19.558 5.093,19.6 L5.093,20.176 C5.093,20.375 4.931,20.537 4.732,20.537 C4.533,20.537 4.371,20.375 4.371,20.176 L4.371,20.176 Z M4.732,23.389 C4.931,23.389 5.093,23.551 5.093,23.75 L5.093,24.94 C5.093,25.14 4.931,25.302 4.732,25.302 C4.533,25.302 4.371,25.14 4.371,24.94 L4.371,23.75 C4.371,23.551 4.533,23.389 4.732,23.389 L4.732,23.389 Z M4.732,25.77 C4.931,25.77 5.093,25.933 5.093,26.132 L5.093,27.323 C5.093,27.522 4.931,27.685 4.732,27.685 C4.533,27.685 4.371,27.522 4.371,27.323 L4.371,26.132 C4.371,25.933 4.533,25.77 4.732,25.77 L4.732,25.77 Z M4.732,28.153 C4.931,28.153 5.093,28.315 5.093,28.515 L5.093,29.705 C5.093,29.904 4.931,30.066 4.732,30.066 C4.533,30.066 4.371,29.904 4.371,29.705 L4.371,28.515 C4.371,28.315 4.533,28.153 4.732,28.153 L4.732,28.153 Z M4.732,30.535 C4.931,30.535 5.093,30.697 5.093,30.896 L5.093,31.727 L5.628,31.727 C5.827,31.727 5.989,31.889 5.989,32.088 C5.989,32.287 5.827,32.449 5.628,32.449 L4.732,32.449 C4.533,32.449 4.371,32.287 4.371,32.088 L4.371,30.896 C4.371,30.697 4.533,30.535 4.732,30.535 L4.732,30.535 Z M19.292,19.612 L18.101,19.612 C17.901,19.612 17.74,19.45 17.74,19.251 C17.74,19.052 17.901,18.89 18.101,18.89 L19.292,18.89 C19.491,18.89 19.653,19.052 19.653,19.251 C19.653,19.45 19.491,19.612 19.292,19.612 L19.292,19.612 Z M19.922,31.727 C20.121,31.727 20.283,31.889 20.283,32.088 C20.283,32.287 20.121,32.449 19.922,32.449 L18.731,32.449 C18.532,32.449 18.37,32.287 18.37,32.088 C18.37,31.889 18.532,31.727 18.731,31.727 L19.922,31.727 L19.922,31.727 Z M17.9,32.088 C17.9,32.287 17.739,32.449 17.54,32.449 L16.349,32.449 C16.149,32.449 15.988,32.287 15.988,32.088 C15.988,31.889 16.149,31.727 16.349,31.727 L17.54,31.727 C17.739,31.727 17.9,31.889 17.9,32.088 L17.9,32.088 Z M16.91,19.612 L15.718,19.612 C15.519,19.612 15.357,19.45 15.357,19.251 C15.357,19.052 15.519,18.89 15.718,18.89 L16.91,18.89 C17.109,18.89 17.27,19.052 17.27,19.251 C17.27,19.45 17.109,19.612 16.91,19.612 L16.91,19.612 Z M15.518,32.088 C15.518,32.287 15.356,32.449 15.157,32.449 L13.966,32.449 C13.767,32.449 13.605,32.287 13.605,32.088 C13.605,31.889 13.767,31.727 13.966,31.727 L15.157,31.727 C15.356,31.727 15.518,31.889 15.518,32.088 L15.518,32.088 Z M14.527,19.612 L13.336,19.612 C13.137,19.612 12.975,19.45 12.975,19.251 C12.975,19.052 13.137,18.89 13.336,18.89 L14.527,18.89 C14.727,18.89 14.888,19.052 14.888,19.251 C14.888,19.45 14.727,19.612 14.527,19.612 L14.527,19.612 Z M13.136,32.088 C13.136,32.287 12.974,32.449 12.775,32.449 L11.584,32.449 C11.385,32.449 11.223,32.287 11.223,32.088 C11.223,31.889 11.385,31.727 11.584,31.727 L12.775,31.727 C12.974,31.727 13.136,31.889 13.136,32.088 L13.136,32.088 Z M12.145,19.612 L10.954,19.612 C10.754,19.612 10.593,19.45 10.593,19.251 C10.593,19.052 10.754,18.89 10.954,18.89 L12.145,18.89 C12.344,18.89 12.506,19.052 12.506,19.251 C12.506,19.45 12.344,19.612 12.145,19.612 L12.145,19.612 Z M10.753,32.088 C10.753,32.287 10.592,32.449 10.393,32.449 L9.202,32.449 C9.002,32.449 8.841,32.287 8.841,32.088 C8.841,31.889 9.002,31.727 9.202,31.727 L10.393,31.727 C10.592,31.727 10.753,31.889 10.753,32.088 L10.753,32.088 Z M22.304,32.449 L21.113,32.449 C20.914,32.449 20.752,32.287 20.752,32.088 C20.752,31.889 20.914,31.727 21.113,31.727 L22.304,31.727 C22.503,31.727 22.665,31.889 22.665,32.088 C22.665,32.287 22.503,32.449 22.304,32.449 L22.304,32.449 Z M20.483,19.612 C20.284,19.612 20.122,19.45 20.122,19.251 C20.122,19.052 20.284,18.89 20.483,18.89 L21.674,18.89 C21.874,18.89 22.035,19.052 22.035,19.251 C22.035,19.45 21.874,19.612 21.674,19.612 L20.483,19.612 L20.483,19.612 Z M14.78,15.368 C14.91,15.13 15.09,14.898 15.336,14.685 L14.873,13.884 L15.698,13.404 L16.13,14.145 C16.696,13.84 17.149,13.744 17.522,13.708 L17.824,14.807 C17.553,14.831 17.044,14.865 16.438,15.219 C16.354,15.268 16.302,15.318 16.24,15.368 L14.78,15.368 L14.78,15.368 Z M10.124,19.251 C10.124,19.45 9.962,19.612 9.763,19.612 L8.571,19.612 C8.372,19.612 8.21,19.45 8.21,19.251 C8.21,19.052 8.372,18.89 8.571,18.89 L9.763,18.89 C9.962,18.89 10.124,19.052 10.124,19.251 L10.124,19.251 Z M8.371,32.088 C8.371,32.287 8.209,32.449 8.01,32.449 L6.819,32.449 C6.62,32.449 6.458,32.287 6.458,32.088 C6.458,31.889 6.62,31.727 6.819,31.727 L8.01,31.727 C8.209,31.727 8.371,31.889 8.371,32.088 L8.371,32.088 Z M7.38,19.612 L6.189,19.612 C5.99,19.612 5.828,19.45 5.828,19.251 C5.828,19.052 5.99,18.89 6.189,18.89 L7.38,18.89 C7.58,18.89 7.741,19.052 7.741,19.251 C7.741,19.45 7.58,19.612 7.38,19.612 L7.38,19.612 Z M3.901,14.595 L4.351,15.368 L2.836,15.368 C2.904,15.263 2.983,15.167 3.074,15.079 C3.302,14.858 3.597,14.709 3.901,14.595 L3.901,14.595 Z M29.337,29.772 C29.337,30.708 28.864,31.485 28.104,31.978 L28.104,28.211 C27.913,28.276 27.709,28.322 27.476,28.322 L23.884,28.322 C23.884,28.325 23.886,28.328 23.886,28.332 L23.886,29.523 C23.886,29.723 23.724,29.885 23.525,29.885 C23.326,29.885 23.164,29.723 23.164,29.523 L23.164,28.332 C23.164,28.299 23.175,28.269 23.183,28.238 C22.085,27.929 21.264,26.747 21.264,25.333 L21.264,23.759 C21.264,22.804 21.644,21.961 22.224,21.412 C22.333,21.31 22.451,21.218 22.574,21.137 L22.572,21.138 C22.449,21.218 22.333,21.309 22.224,21.412 C22.645,21.014 23.169,20.766 23.746,20.766 L27.476,20.766 C27.983,20.766 27.983,20.703 27.983,20.211 L29.618,20.211 L29.337,20.374 L29.337,21.9 C29.153,21.936 28.958,21.957 28.752,21.957 L24.255,21.957 C23.261,21.957 22.456,22.764 22.456,23.759 L22.456,25.333 C22.456,26.325 23.261,27.131 24.255,27.131 L28.752,27.131 C28.958,27.131 29.154,27.094 29.337,27.01 L29.337,29.772 L29.337,29.772 Z M25.883,24.515 C25.883,25.008 25.484,25.409 24.991,25.409 C24.498,25.409 24.097,25.008 24.097,24.515 C24.097,24.021 24.498,23.621 24.991,23.621 C25.484,23.621 25.883,24.021 25.883,24.515 L25.883,24.515 Z M28.104,19.713 L28.104,18.753 L30.311,17.468 C30.397,17.418 30.427,17.294 30.45,17.198 C30.473,17.102 30.424,16.959 30.37,16.876 C29.975,16.196 30.206,15.322 30.881,14.928 C30.943,14.893 31.007,14.868 31.071,14.844 C31.169,14.805 31.245,14.726 31.279,14.626 C31.314,14.526 31.303,14.417 31.25,14.326 L26.579,6.304 C26.526,6.213 26.425,6.159 26.322,6.14 C26.217,6.123 26.101,6.157 26.018,6.223 C25.975,6.257 25.932,6.293 25.877,6.324 C25.219,6.707 24.307,6.462 23.93,5.814 L23.619,5.975 L23.618,5.972 L23.886,5.716 C23.841,5.628 23.761,5.562 23.667,5.534 C23.569,5.506 23.469,5.519 23.383,5.569 L9.747,13.507 C9.66,13.559 9.627,13.68 9.606,13.778 C9.585,13.877 9.634,14.016 9.691,14.098 C9.926,14.5 9.936,14.969 9.768,15.368 L7.108,15.368 L6.548,14.407 L25.75,3.23 L33.513,16.564 L28.104,19.713 L28.104,19.713 Z" id="Fill-2"></path>
                        </g>
                    </g>
                </g>
            </g>
        </g>
    </g>
</svg>