<?xml version="1.0" encoding="utf-8"?>
<!-- Generator: Adobe Illustrator 16.0.4, SVG Export Plug-In . SVG Version: 6.00 Build 0)  -->
<!DOCTYPE svg PUBLIC "-//W3C//DTD SVG 1.1//EN" "http://www.w3.org/Graphics/SVG/1.1/DTD/svg11.dtd">
<svg version="1.1" id="Layer_1" xmlns:sketch="http://www.bohemiancoding.com/sketch/ns"
	 xmlns="http://www.w3.org/2000/svg" xmlns:xlink="http://www.w3.org/1999/xlink" x="0px" y="0px" width="393px" height="160px"
	 viewBox="0 0 393 160" enable-background="new 0 0 393 160" xml:space="preserve">
<title>logo</title>
<desc>Created with Sketch.</desc>
<g id="_x31_920x1024---20160718_x5F_main" transform="translate(-330.000000, -67.000000)" sketch:type="MSArtboardGroup">
	<g id="Header-Copy" transform="translate(-16.000000, 57.000000)" sketch:type="MSLayerGroup">
		<g id="logo" transform="translate(345.000000, 10.000000)">
			<ellipse id="Oval-17" sketch:type="MSShapeGroup" fill="#FFEF2B" cx="63.049" cy="61.943" rx="62.048" ry="61.943">
			</ellipse>
			
				<path id="Stroke-1" sketch:type="MSShapeGroup" fill="none" stroke="#479EAF" stroke-width="2" stroke-linecap="round" stroke-linejoin="round" d="
				M138.023,67.8c0-32.976-26.821-59.709-59.909-59.709c-29.776,0-53.916,24.059-53.916,53.737
				c0,26.712,21.725,48.368,48.525,48.368c24.118,0,43.671-19.489,43.671-43.53c0-21.637-17.597-39.174-39.303-39.174
				c-19.54,0-35.377,15.785-35.377,35.256c0,17.525,14.253,31.734,31.839,31.734c15.824,0,28.652-12.787,28.652-28.561
				c0-14.195-11.545-25.703-25.787-25.703c-12.82,0-23.212,10.358-23.212,23.133c0,11.499,9.354,20.819,20.89,20.819
				c10.382,0,18.799-8.387,18.799-18.737c0-9.313-7.575-16.862-16.919-16.862c-8.41,0-15.227,6.794-15.227,15.177
				c0,7.543,6.135,13.658,13.703,13.658"/>
			<path id="Fill-2" sketch:type="MSShapeGroup" d="M143.26,79.815c2.012,0,4.114,0.191,6.303,0.569
				c2.19,0.377,4.024,0.88,5.499,1.502l-1.006,4.746c-1.519-0.535-3.152-0.969-4.896-1.303c-1.743-0.334-3.464-0.5-5.163-0.5
				c-5.589,0-9.948,1.559-13.077,4.676c-3.131,3.121-4.694,7.576-4.694,13.368c0,5.794,1.563,10.249,4.694,13.368
				c3.128,3.12,7.487,4.678,13.077,4.678c1.699,0,3.42-0.166,5.163-0.5c1.744-0.334,3.376-0.77,4.896-1.305l1.006,4.748
				c-1.475,0.623-3.309,1.125-5.499,1.503c-2.189,0.378-4.292,0.567-6.303,0.567c-3.667,0-6.942-0.579-9.823-1.738
				c-2.883-1.156-5.312-2.762-7.277-4.812c-1.968-2.049-3.478-4.479-4.525-7.285c-1.052-2.807-1.577-5.882-1.577-9.224
				s0.525-6.417,1.577-9.224c1.048-2.807,2.558-5.234,4.525-7.283c1.965-2.051,4.394-3.655,7.277-4.814
				C136.318,80.396,139.593,79.815,143.26,79.815"/>
			<path id="Fill-3" sketch:type="MSShapeGroup" d="M163.107,125.131V93.049h6.038v15.172l12.875-15.172h6.974l-13.951,15.172
				l15.088,16.91h-7.307l-13.68-15.907v15.907H163.107"/>
			<path id="Fill-4" sketch:type="MSShapeGroup" d="M200.66,93.049h21.66v32.082h-6.035V97.728h-10.395l-0.402,5.079
				c-0.492,6.062-1.554,11.131-3.184,15.207c-1.635,4.078-3.881,6.763-6.741,8.053l-3.084-4.742
				c1.073-0.535,2.012-1.238,2.816-2.107s1.508-2.049,2.113-3.542c0.601-1.493,1.105-3.376,1.507-5.649
				c0.402-2.271,0.738-5.079,1.006-8.422L200.66,93.049"/>
			<path id="Fill-5" sketch:type="MSShapeGroup" d="M250.149,121.121c-0.493,0.58-1.097,1.147-1.811,1.705
				c-0.714,0.559-1.533,1.059-2.446,1.503c-0.918,0.447-1.924,0.802-3.02,1.069c-1.094,0.268-2.246,0.4-3.453,0.4
				c-1.341,0-2.571-0.209-3.688-0.633c-1.117-0.424-2.08-1.012-2.885-1.772c-0.805-0.757-1.442-1.692-1.912-2.808
				c-0.467-1.113-0.703-2.337-0.703-3.676c0-2.938,1.039-5.168,3.12-6.684c2.079-1.515,4.86-2.383,8.348-2.607
				c1.431-0.087,2.851-0.154,4.257-0.2c1.408-0.044,2.762-0.067,4.059-0.067v-1.402c0-2.718-0.583-4.846-1.744-6.383
				c-1.162-1.537-3.084-2.305-5.767-2.305c-1.565,0-3.052,0.199-4.458,0.6c-1.408,0.4-2.762,0.959-4.059,1.671l-1.408-4.411
				c1.699-1.023,3.432-1.738,5.195-2.139c1.768-0.401,3.7-0.602,5.803-0.602c3.799,0,6.828,1.159,9.085,3.475
				c2.257,2.319,3.388,5.639,3.388,9.959v19.316h-5.901V121.121L250.149,121.121z M241.164,121.389c1.743,0,3.375-0.391,4.895-1.169
				c1.52-0.779,2.838-1.772,3.957-2.976v-5.948c-1.342,0.09-2.592,0.18-3.756,0.267c-1.163,0.09-2.326,0.201-3.486,0.335
				c-0.939,0.09-1.822,0.247-2.65,0.468c-0.826,0.224-1.543,0.525-2.144,0.903c-0.606,0.378-1.075,0.868-1.411,1.47
				c-0.335,0.602-0.502,1.326-0.502,2.172c0,1.517,0.447,2.641,1.342,3.377C238.301,121.021,239.555,121.389,241.164,121.389
				L241.164,121.389z"/>
			<path id="Fill-6" sketch:type="MSShapeGroup" d="M264.098,120.453c0.402-0.402,0.928-1.279,1.574-2.64
				c0.648-1.36,1.298-3.196,1.945-5.515c0.647-2.316,1.219-5.08,1.711-8.289c0.49-3.207,0.781-6.861,0.872-10.961h21.659v27.404
				h3.689v12.698h-5.365v-8.021h-23.404v8.021h-5.363v-12.698H264.098L264.098,120.453z M275.699,97.728
				c-0.627,6.149-1.455,11.04-2.481,14.672c-1.029,3.632-2.035,6.315-3.018,8.054h15.624V97.728H275.699L275.699,97.728z"/>
			<path id="Fill-7" sketch:type="MSShapeGroup" d="M318.278,125.131v11.43h-5.767v-16.309l3.487-0.066
				c1.116-1.738,2.067-3.787,2.851-6.149c0.782-2.36,1.452-5.136,2.012-8.32c0.558-3.185,1.027-6.841,1.408-10.962
				c0.38-4.12,0.747-8.834,1.105-14.137h26.287v39.635h4.158v16.309h-5.768v-11.43H318.278L318.278,125.131z M328.605,85.496
				c-0.402,5.101-0.837,9.539-1.306,13.319c-0.47,3.782-0.985,7.046-1.543,9.796c-0.56,2.751-1.14,5.054-1.743,6.911
				c-0.604,1.855-1.219,3.435-1.846,4.729h21.325V85.496H328.605L328.605,85.496z"/>
			<path id="Fill-8" sketch:type="MSShapeGroup" d="M392.381,112.681c0,1.827-0.416,3.515-1.246,5.055
				c-0.828,1.54-2.007,2.855-3.529,3.95c-1.521,1.092-3.351,1.94-5.478,2.542c-2.127,0.604-4.488,0.903-7.09,0.903h-12.635V80.617
				h13.845c2.154,0,4.122,0.256,5.917,0.768c1.792,0.514,3.327,1.244,4.606,2.201c1.273,0.956,2.261,2.104,2.952,3.438
				c0.696,1.335,1.043,2.8,1.043,4.401c0,2.58-0.862,4.748-2.587,6.507c-1.726,1.757-3.934,3.079-6.621,3.969
				c3.316,0.624,5.948,1.842,7.895,3.648C391.405,107.357,392.381,109.735,392.381,112.681L392.381,112.681z M374.002,99.732
				c1.524,0,2.941-0.175,4.26-0.527s2.458-0.862,3.42-1.523c0.962-0.664,1.711-1.457,2.248-2.383
				c0.538-0.93,0.805-1.987,0.805-3.182c0-2.205-0.84-3.862-2.517-4.967c-1.676-1.102-3.856-1.654-6.539-1.654h-7.374v14.236
				H374.002L374.002,99.732z M386.478,112.467c0-1.332-0.316-2.496-0.943-3.494c-0.629-0.998-1.482-1.818-2.558-2.464
				c-1.08-0.644-2.333-1.12-3.771-1.429c-1.432-0.312-2.957-0.466-4.574-0.466h-6.326v15.638h7.136c3.364,0,6.047-0.654,8.043-1.961
				C385.479,116.981,386.478,115.039,386.478,112.467L386.478,112.467z"/>
			<text transform="matrix(1 0 0 1 0.1841 158.1846)" font-family="'OpenSans'" font-size="17.234">ИНТЕРНЕТ-МАГАЗИН ИНТЕРЬЕРНЫХ РЕШЕНИЙ</text>
		</g>
	</g>
</g>
</svg>
