<?xml version="1.0" encoding="utf-8"?>
<!-- Generator: Adobe Illustrator 16.0.4, SVG Export Plug-In . SVG Version: 6.00 Build 0)  -->
<!DOCTYPE svg PUBLIC "-//W3C//DTD SVG 1.1//EN" "http://www.w3.org/Graphics/SVG/1.1/DTD/svg11.dtd">
<svg version="1.1" id="Слой_1" xmlns:sketch="http://www.bohemiancoding.com/sketch/ns"
	 xmlns="http://www.w3.org/2000/svg" xmlns:xlink="http://www.w3.org/1999/xlink" x="0px" y="0px" width="393px" height="160px"
	 viewBox="0 0 393 160" enable-background="new 0 0 393 160" xml:space="preserve">
<title>logo</title>
<desc>Created with Sketch.</desc>
<g id="_x31_920x1024" sketch:type="MSPage">
	<g id="_x31_920x1024---20160718_x5F_main" transform="translate(-330.000000, -67.000000)" sketch:type="MSArtboardGroup">
		<g id="Header-Copy" transform="translate(-16.000000, 57.000000)" sketch:type="MSLayerGroup">
			<g id="logo" transform="translate(345.000000, 10.000000)">
				<ellipse id="Oval-17" sketch:type="MSShapeGroup" fill="#FFEF2B" cx="60.288" cy="59.188" rx="59.289" ry="59.188">
				</ellipse>
				
					<path id="Stroke-1" sketch:type="MSShapeGroup" fill="none" stroke="#479EAF" stroke-width="1.911" stroke-linecap="round" stroke-linejoin="round" d="
					M131.928,64.785c0-31.509-25.628-57.053-57.244-57.053c-28.452,0-51.518,22.989-51.518,51.347
					c0,25.524,20.759,46.216,46.367,46.216c23.045,0,41.729-18.622,41.729-41.594c0-20.675-16.815-37.431-37.556-37.431
					c-18.67,0-33.803,15.083-33.803,33.688c0,16.746,13.62,30.323,30.423,30.323c15.12,0,27.378-12.219,27.378-27.291
					c0-13.563-11.032-24.56-24.64-24.56c-12.249,0-22.18,9.897-22.18,22.104c0,10.987,8.938,19.893,19.961,19.893
					c9.92,0,17.963-8.014,17.963-17.904c0-8.899-7.238-16.112-16.167-16.112c-8.036,0-14.55,6.492-14.55,14.502
					c0,7.208,5.862,13.051,13.094,13.051"/>
				<path id="Fill-2" sketch:type="MSShapeGroup" d="M136.932,76.265c1.922,0,3.931,0.183,6.023,0.544
					c2.092,0.361,3.844,0.841,5.254,1.436l-0.961,4.535c-1.452-0.512-3.012-0.926-4.678-1.245c-1.666-0.318-3.31-0.478-4.934-0.478
					c-5.34,0-9.505,1.489-12.495,4.468c-2.992,2.982-4.485,7.239-4.485,12.773c0,5.536,1.494,9.794,4.485,12.774
					c2.99,2.98,7.154,4.469,12.495,4.469c1.625,0,3.269-0.158,4.934-0.478c1.666-0.319,3.226-0.735,4.678-1.246l0.961,4.536
					c-1.41,0.596-3.163,1.075-5.254,1.437c-2.092,0.361-4.101,0.542-6.023,0.542c-3.504,0-6.633-0.554-9.386-1.661
					c-2.755-1.104-5.075-2.639-6.953-4.599c-1.88-1.957-3.323-4.279-4.324-6.961c-1.006-2.682-1.507-5.62-1.507-8.813
					c0-3.192,0.501-6.131,1.507-8.813c1.001-2.682,2.444-5.001,4.324-6.959c1.877-1.959,4.198-3.493,6.953-4.6
					C130.3,76.82,133.428,76.265,136.932,76.265"/>
				<path id="Fill-3" sketch:type="MSShapeGroup" d="M155.897,119.565V88.91h5.769v14.497l12.302-14.497h6.665l-13.331,14.497
					l14.417,16.158h-6.982l-13.071-15.2v15.2H155.897"/>
				<path id="Fill-4" sketch:type="MSShapeGroup" d="M191.78,88.91h20.696v30.655h-5.768V93.381h-9.931l-0.385,4.853
					c-0.471,5.793-1.484,10.636-3.043,14.531c-1.562,3.896-3.707,6.462-6.44,7.694l-2.948-4.531
					c1.026-0.512,1.922-1.184,2.691-2.014s1.441-1.958,2.019-3.385c0.575-1.427,1.057-3.226,1.441-5.397
					c0.384-2.171,0.706-4.854,0.961-8.048L191.78,88.91"/>
				<path id="Fill-5" sketch:type="MSShapeGroup" d="M239.068,115.733c-0.472,0.555-1.048,1.097-1.73,1.63s-1.465,1.011-2.337,1.436
					c-0.878,0.428-1.839,0.767-2.887,1.021c-1.045,0.256-2.145,0.383-3.298,0.383c-1.281,0-2.457-0.199-3.524-0.604
					s-1.987-0.967-2.756-1.693c-0.769-0.724-1.378-1.617-1.827-2.683c-0.446-1.064-0.672-2.233-0.672-3.513
					c0-2.808,0.993-4.938,2.981-6.386c1.985-1.447,4.645-2.277,7.977-2.492c1.367-0.083,2.724-0.147,4.067-0.191
					c1.346-0.042,2.638-0.064,3.877-0.064v-1.34c0-2.597-0.556-4.63-1.665-6.099c-1.111-1.469-2.948-2.202-5.511-2.202
					c-1.496,0-2.917,0.19-4.261,0.573c-1.346,0.382-2.638,0.916-3.877,1.597l-1.346-4.215c1.624-0.979,3.279-1.661,4.965-2.044
					c1.688-0.384,3.535-0.575,5.543-0.575c3.631,0,6.525,1.108,8.682,3.32c2.157,2.216,3.237,5.388,3.237,9.516v18.458h-5.639
					V115.733L239.068,115.733z M230.481,115.989c1.667,0,3.227-0.373,4.678-1.117c1.452-0.744,2.711-1.693,3.78-2.843v-5.684
					c-1.281,0.086-2.477,0.172-3.588,0.255c-1.111,0.086-2.223,0.192-3.332,0.319c-0.896,0.086-1.741,0.235-2.531,0.447
					c-0.79,0.214-1.475,0.502-2.049,0.863c-0.579,0.361-1.027,0.83-1.348,1.404c-0.32,0.575-0.48,1.268-0.48,2.075
					c0,1.449,0.427,2.523,1.282,3.227C227.746,115.639,228.944,115.989,230.481,115.989L230.481,115.989z"/>
				<path id="Fill-6" sketch:type="MSShapeGroup" d="M252.396,115.096c0.384-0.385,0.885-1.223,1.504-2.522
					c0.618-1.3,1.24-3.054,1.858-5.27c0.619-2.213,1.164-4.854,1.635-7.92c0.469-3.064,0.747-6.557,0.834-10.474h20.695v26.186
					h3.524v12.133h-5.125v-7.663h-22.363v7.663h-5.126v-12.133H252.396L252.396,115.096z M263.48,93.381
					c-0.598,5.876-1.389,10.549-2.37,14.02c-0.983,3.47-1.944,6.034-2.883,7.695h14.929V93.381H263.48L263.48,93.381z"/>
				<path id="Fill-7" sketch:type="MSShapeGroup" d="M304.166,119.565v10.921h-5.51v-15.583l3.331-0.063
					c1.067-1.661,1.976-3.619,2.725-5.876c0.746-2.255,1.388-4.907,1.922-7.95c0.533-3.043,0.981-6.536,1.346-10.475
					c0.362-3.937,0.714-8.44,1.057-13.508h25.118v37.872h3.972v15.583h-5.51v-10.921H304.166L304.166,119.565z M314.034,81.693
					c-0.385,4.874-0.8,9.114-1.249,12.727c-0.449,3.614-0.941,6.732-1.474,9.36c-0.534,2.629-1.09,4.829-1.666,6.604
					c-0.577,1.773-1.165,3.282-1.763,4.52h20.375v-33.21H314.034L314.034,81.693z"/>
				<path id="Fill-8" sketch:type="MSShapeGroup" d="M374.973,107.669c0,1.745-0.398,3.358-1.191,4.829
					c-0.791,1.472-1.918,2.729-3.372,3.775c-1.453,1.043-3.201,1.854-5.234,2.429c-2.032,0.577-4.289,0.863-6.773,0.863h-12.073
					V77.031h13.229c2.059,0,3.939,0.245,5.653,0.733c1.712,0.491,3.181,1.189,4.401,2.104c1.218,0.913,2.161,2.01,2.822,3.285
					c0.665,1.276,0.996,2.676,0.996,4.206c0,2.465-0.823,4.537-2.473,6.217c-1.647,1.679-3.759,2.942-6.325,3.793
					c3.169,0.596,5.683,1.76,7.543,3.486C374.039,102.582,374.973,104.854,374.973,107.669L374.973,107.669z M357.411,95.296
					c1.456,0,2.811-0.167,4.069-0.503c1.26-0.337,2.349-0.824,3.269-1.456c0.919-0.635,1.635-1.393,2.147-2.277
					c0.515-0.888,0.769-1.898,0.769-3.04c0-2.106-0.802-3.69-2.403-4.745c-1.603-1.053-3.687-1.581-6.248-1.581h-7.048v13.603
					H357.411L357.411,95.296z M369.331,107.464c0-1.272-0.303-2.385-0.901-3.338c-0.602-0.954-1.416-1.738-2.443-2.354
					c-1.032-0.615-2.23-1.07-3.604-1.365c-1.368-0.298-2.826-0.445-4.371-0.445h-6.046v14.942h6.819
					c3.215,0,5.778-0.625,7.685-1.874C368.377,111.778,369.331,109.922,369.331,107.464L369.331,107.464z"/>
				<g enable-background="new    ">
					<path d="M1.926,139.545h1.335v6.828c0,1.26-0.04,2.398-0.118,3.418H3.21l6.887-10.246h1.562v12.278h-1.344v-6.761
						c0-1.125,0.047-2.307,0.143-3.544h-0.075l-6.895,10.305H1.926V139.545z"/>
					<path d="M24.34,151.823h-1.428v-5.778h-6.466v5.778h-1.428v-12.278h1.428v5.224h6.466v-5.224h1.428V151.823z"/>
					<path d="M31.487,151.823h-1.428v-11.01h-3.889v-1.269h9.205v1.269h-3.888V151.823z"/>
					<path d="M44.067,151.823h-6.844v-12.278h6.844v1.269h-5.417v3.955h5.089v1.26h-5.089v4.519h5.417V151.823z"/>
					<path d="M54.573,143.123c0,1.242-0.424,2.199-1.272,2.868s-2.062,1.003-3.641,1.003h-1.444v4.829h-1.428v-12.278h3.183
						C53.039,139.545,54.573,140.737,54.573,143.123z M48.216,145.769h1.285c1.266,0,2.181-0.205,2.746-0.613
						c0.566-0.409,0.849-1.063,0.849-1.965c0-0.812-0.266-1.417-0.798-1.814c-0.532-0.397-1.361-0.597-2.486-0.597h-1.596V145.769z"
						/>
					<path d="M66.465,151.823h-1.428v-5.778h-6.466v5.778h-1.428v-12.278h1.428v5.224h6.466v-5.224h1.428V151.823z"/>
					<path d="M76.677,151.823h-6.844v-12.278h6.844v1.269H71.26v3.955h5.089v1.26H71.26v4.519h5.417V151.823z"/>
					<path d="M83.177,151.823H81.75v-11.01h-3.888v-1.269h9.204v1.269h-3.888V151.823z"/>
					<path d="M87.931,147.851v-1.276h4.123v1.276H87.931z"/>
					<path d="M99.881,151.823l-4.166-10.884h-0.067c0.078,0.862,0.118,1.887,0.118,3.073v7.811h-1.319v-12.278h2.15l3.889,10.128
						h0.067l3.922-10.128h2.133v12.278h-1.428v-7.911c0-0.907,0.039-1.893,0.118-2.956h-0.067l-4.199,10.867H99.881z"/>
					<path d="M117.694,151.823l-1.528-3.905h-4.921l-1.512,3.905h-1.444l4.854-12.328h1.201l4.829,12.328H117.694z M115.72,146.633
						l-1.428-3.804c-0.185-0.481-0.375-1.072-0.571-1.772c-0.123,0.538-0.3,1.128-0.529,1.772l-1.444,3.804H115.72z"/>
					<path d="M127.704,139.545v1.285h-5.417v10.993h-1.428v-12.278H127.704z"/>
					<path d="M137.522,151.823l-1.528-3.905h-4.921l-1.512,3.905h-1.444l4.854-12.328h1.201L139,151.823H137.522z M135.548,146.633
						l-1.428-3.804c-0.185-0.481-0.375-1.072-0.571-1.772c-0.124,0.538-0.3,1.128-0.529,1.772l-1.444,3.804H135.548z"/>
					<path d="M147.809,142.417c0,0.807-0.256,1.462-0.769,1.966s-1.219,0.822-2.121,0.957v0.067c1.025,0.14,1.802,0.462,2.331,0.966
						c0.529,0.504,0.794,1.161,0.794,1.974c0,1.147-0.429,2.042-1.285,2.684c-0.856,0.641-2.066,0.961-3.628,0.961
						c-1.428,0-2.598-0.221-3.51-0.663v-1.327c0.537,0.258,1.118,0.456,1.743,0.596c0.624,0.141,1.225,0.21,1.801,0.21
						c1.108,0,1.947-0.21,2.515-0.63s0.853-1.024,0.853-1.813c0-0.75-0.315-1.318-0.945-1.705c-0.63-0.386-1.569-0.579-2.818-0.579
						h-1.831v-1.201h1.755c1.147,0,2.036-0.206,2.666-0.617c0.63-0.412,0.945-0.986,0.945-1.726c0-0.6-0.227-1.078-0.68-1.437
						s-1.063-0.537-1.831-0.537c-0.616,0-1.173,0.069-1.671,0.21c-0.498,0.14-1.075,0.417-1.73,0.831l-0.706-0.957
						c0.565-0.42,1.2-0.737,1.902-0.953s1.432-0.323,2.188-0.323c1.26,0,2.247,0.275,2.96,0.827S147.809,141.488,147.809,142.417z"
						/>
					<path d="M150.698,139.545h1.335v6.828c0,1.26-0.039,2.398-0.117,3.418h0.067l6.887-10.246h1.562v12.278h-1.344v-6.761
						c0-1.125,0.047-2.307,0.143-3.544h-0.076l-6.895,10.305h-1.562V139.545z"/>
					<path d="M173.113,151.823h-1.428v-5.778h-6.467v5.778h-1.428v-12.278h1.428v5.224h6.467v-5.224h1.428V151.823z"/>
					<path d="M180.965,139.545h1.335v6.828c0,1.26-0.039,2.398-0.118,3.418h0.067l6.886-10.246h1.562v12.278h-1.344v-6.761
						c0-1.125,0.047-2.307,0.142-3.544h-0.075l-6.896,10.305h-1.562V139.545z"/>
					<path d="M203.38,151.823h-1.428v-5.778h-6.466v5.778h-1.428v-12.278h1.428v5.224h6.466v-5.224h1.428V151.823z"/>
					<path d="M210.526,151.823h-1.427v-11.01h-3.888v-1.269h9.204v1.269h-3.89V151.823z"/>
					<path d="M223.107,151.823h-6.844v-12.278h6.844v1.269h-5.416v3.955h5.089v1.26h-5.089v4.519h5.416V151.823z"/>
					<path d="M233.614,143.123c0,1.242-0.425,2.199-1.272,2.868c-0.849,0.669-2.062,1.003-3.642,1.003h-1.444v4.829h-1.428v-12.278
						h3.184C232.079,139.545,233.614,140.737,233.614,143.123z M227.255,145.769h1.286c1.265,0,2.18-0.205,2.745-0.613
						c0.565-0.409,0.849-1.063,0.849-1.965c0-0.812-0.267-1.417-0.799-1.814c-0.531-0.397-1.36-0.597-2.485-0.597h-1.596V145.769z"
						/>
					<path d="M244.656,148.246c0,1.136-0.379,2.017-1.138,2.641c-0.759,0.625-1.841,0.937-3.246,0.937h-4.09v-12.278h1.428v5.24
						h2.443c1.495,0,2.636,0.296,3.423,0.887C244.263,146.263,244.656,147.12,244.656,148.246z M237.611,150.589h2.511
						c2.038,0,3.057-0.781,3.057-2.343c0-0.756-0.261-1.312-0.785-1.667c-0.523-0.355-1.361-0.534-2.515-0.534h-2.268V150.589z"/>
					<path d="M254.088,151.823h-6.846v-12.278h6.846v1.269h-5.418v3.955h5.09v1.26h-5.09v4.519h5.418V151.823z"/>
					<path d="M264.593,143.123c0,1.242-0.424,2.199-1.271,2.868c-0.849,0.669-2.062,1.003-3.641,1.003h-1.444v4.829h-1.428v-12.278
						h3.183C263.059,139.545,264.593,140.737,264.593,143.123z M258.237,145.769h1.284c1.266,0,2.182-0.205,2.747-0.613
						c0.565-0.409,0.848-1.063,0.848-1.965c0-0.812-0.266-1.417-0.797-1.814c-0.532-0.397-1.36-0.597-2.486-0.597h-1.596V145.769z"
						/>
					<path d="M276.485,151.823h-1.428v-5.778h-6.466v5.778h-1.428v-12.278h1.428v5.224h6.466v-5.224h1.428V151.823z"/>
					<path d="M279.854,151.823v-12.278h1.428v5.24h2.006c1.461,0,2.575,0.288,3.343,0.86c0.767,0.575,1.151,1.441,1.151,2.601
						c0,1.153-0.364,2.037-1.088,2.653c-0.727,0.616-1.784,0.924-3.179,0.924H279.854z M281.281,150.605h2.073
						c1.014,0,1.758-0.197,2.233-0.593c0.477-0.394,0.715-0.983,0.715-1.767c0-0.768-0.252-1.323-0.752-1.667
						c-0.502-0.346-1.312-0.517-2.432-0.517h-1.838V150.605z M291.148,151.823h-1.427v-12.278h1.427V151.823z"/>
					<path d="M302.697,151.823h-1.622l-3.299-5.4l-3.359,5.4h-1.512l4.081-6.416l-3.805-5.862h1.578l3.05,4.862l3.073-4.862h1.52
						l-3.804,5.812L302.697,151.823z"/>
					<path d="M316.704,143.123c0,1.242-0.424,2.199-1.272,2.868c-0.848,0.669-2.062,1.003-3.641,1.003h-1.445v4.829h-1.428v-12.278
						h3.185C315.17,139.545,316.704,140.737,316.704,143.123z M310.346,145.769h1.286c1.266,0,2.18-0.205,2.745-0.613
						c0.565-0.409,0.85-1.063,0.85-1.965c0-0.812-0.268-1.417-0.799-1.814c-0.532-0.397-1.36-0.597-2.486-0.597h-1.596V145.769z"/>
					<path d="M326.118,151.823h-6.844v-12.278h6.844v1.269h-5.416v3.955h5.089v1.26h-5.089v4.519h5.416V151.823z"/>
					<path d="M343.217,151.823h-14.378v-12.278h1.428v10.985h5.039v-10.985h1.428v10.985h5.038v-10.985h1.445V151.823z"/>
					<path d="M353.438,151.823h-6.845v-12.278h6.845v1.269h-5.417v3.955h5.089v1.26h-5.089v4.519h5.417V151.823z"/>
					<path d="M365.481,151.823h-1.428v-5.778h-6.466v5.778h-1.428v-12.278h1.428v5.224h6.466v-5.224h1.428V151.823z"/>
					<path d="M368.865,139.545h1.336v6.828c0,1.26-0.039,2.398-0.117,3.418h0.067l6.886-10.246h1.562v12.278h-1.344v-6.761
						c0-1.125,0.047-2.307,0.142-3.544h-0.074l-6.896,10.305h-1.562V139.545z"/>
					<path d="M381.975,139.545h1.334v6.828c0,1.26-0.039,2.398-0.117,3.418h0.067l6.887-10.246h1.562v12.278h-1.344v-6.761
						c0-1.125,0.049-2.307,0.144-3.544h-0.076l-6.894,10.305h-1.562V139.545z M387.064,138.562c-1.035,0-1.791-0.199-2.267-0.6
						c-0.477-0.4-0.743-1.061-0.799-1.979h1.31c0.051,0.582,0.203,0.988,0.457,1.218c0.256,0.229,0.7,0.345,1.333,0.345
						c0.576,0,1.002-0.124,1.28-0.37c0.276-0.246,0.446-0.644,0.508-1.192h1.319c-0.067,0.885-0.352,1.536-0.85,1.952
						C388.858,138.354,388.094,138.562,387.064,138.562z"/>
				</g>
			</g>
		</g>
	</g>
</g>
</svg>
