<?xml version="1.0" encoding="UTF-8" standalone="no"?>
<svg width="64px" height="63px" viewBox="0 0 64 63" version="1.1" xmlns="http://www.w3.org/2000/svg" xmlns:xlink="http://www.w3.org/1999/xlink" xmlns:sketch="http://www.bohemiancoding.com/sketch/ns">
    <!-- Generator: Sketch 3.3.2 (12043) - http://www.bohemiancoding.com/sketch -->
    <title>Imported Layers</title>
    <desc>Created with Sketch.</desc>
    <defs></defs>
    <g id="1920x1024" stroke="none" stroke-width="1" fill="none" fill-rule="evenodd" sketch:type="MSPage">
        <g id="1920x1024---20160718_main" sketch:type="MSArtboardGroup" transform="translate(-1074.000000, -3067.000000)" fill="#479EAF">
            <g id="плюшки-2" sketch:type="MSLayerGroup" transform="translate(328.000000, 2989.000000)">
                <g id="3" transform="translate(633.197268, 0.906085)" sketch:type="MSShapeGroup">
                    <path d="M171.634508,81.9200018 C171.136394,79.2215959 168.77587,77.1687639 165.935809,77.1687639 L149.680352,77.1687639 C147.77498,77.1687639 146.094863,78.1046138 145.035936,79.5269663 C143.977009,78.1046138 142.296891,77.1687639 140.391519,77.1687639 L124.136062,77.1687639 C121.296002,77.1687639 118.935477,79.2215959 118.437363,81.9200018 C115.738957,82.4181155 113.686125,84.7786401 113.686125,87.6187007 L113.686125,129.418448 C113.686125,132.619612 116.290482,135.223968 119.491646,135.223968 L139.230415,135.223968 C141.19152,135.223968 142.713728,137.096829 142.713728,138.70728 C142.713728,139.34821 143.233902,139.868385 143.874832,139.868385 L146.19704,139.868385 C146.837969,139.868385 147.358144,139.34821 147.358144,138.70728 C147.358144,137.096829 148.87919,135.223968 150.841456,135.223968 L170.580226,135.223968 C173.78139,135.223968 176.385746,132.619612 176.385746,129.418448 L176.385746,87.6187007 C176.385746,84.7786401 174.332914,82.4181155 171.634508,81.9200018 L171.634508,81.9200018 Z M149.680352,79.4909721 L165.935809,79.4909721 C167.856275,79.4909721 169.419122,81.0538182 169.419122,82.9742843 L169.419122,124.774031 C169.419122,126.694498 167.856275,128.257344 165.935809,128.257344 L149.680352,128.257344 C148.398493,128.257344 147.182817,128.722946 146.19704,129.489275 L146.19704,82.9742843 C146.19704,81.0538182 147.759886,79.4909721 149.680352,79.4909721 L149.680352,79.4909721 Z M120.65275,82.9742843 C120.65275,81.0538182 122.215596,79.4909721 124.136062,79.4909721 L140.391519,79.4909721 C142.311986,79.4909721 143.874832,81.0538182 143.874832,82.9742843 L143.874832,129.489275 C142.889054,128.722946 141.673378,128.257344 140.391519,128.257344 L124.136062,128.257344 C122.215596,128.257344 120.65275,126.694498 120.65275,124.774031 L120.65275,82.9742843 L120.65275,82.9742843 Z M143.874832,135.316857 C142.796166,133.873604 141.081215,132.90176 139.230415,132.90176 L119.491646,132.90176 C117.57118,132.90176 116.008334,131.338914 116.008334,129.418448 L116.008334,87.6187007 C116.008334,86.1069432 116.981339,84.8308898 118.330542,84.3490316 L118.330542,124.774031 C118.330542,127.975195 120.934898,130.579552 124.136062,130.579552 L140.391519,130.579552 C142.352624,130.579552 143.874832,132.452413 143.874832,134.062864 L143.874832,135.316857 L143.874832,135.316857 Z M174.063538,129.418448 C174.063538,131.338914 172.500692,132.90176 170.580226,132.90176 L150.841456,132.90176 C148.990656,132.90176 147.275706,133.873604 146.19704,135.316857 L146.19704,134.062864 C146.19704,132.452413 147.719247,130.579552 149.680352,130.579552 L165.935809,130.579552 C169.136973,130.579552 171.74133,127.975195 171.74133,124.774031 L171.74133,84.3490316 C173.090533,84.8308898 174.063538,86.1069432 174.063538,87.6187007 L174.063538,129.418448 L174.063538,129.418448 Z" id="Imported-Layers"></path>
                </g>
            </g>
        </g>
    </g>
</svg>