<?xml version="1.0" encoding="UTF-8" standalone="no"?>
<svg width="62px" height="62px" viewBox="0 0 62 62" version="1.1" xmlns="http://www.w3.org/2000/svg" xmlns:xlink="http://www.w3.org/1999/xlink" xmlns:sketch="http://www.bohemiancoding.com/sketch/ns">
    <!-- Generator: Sketch 3.3.2 (12043) - http://www.bohemiancoding.com/sketch -->
    <title>calc</title>
    <desc>Created with Sketch.</desc>
    <defs></defs>
    <g id="1920x1024" stroke="none" stroke-width="1" fill="none" fill-rule="evenodd" sketch:type="MSPage">
        <g id="1920x1024---20160718_main" sketch:type="MSArtboardGroup" transform="translate(-761.000000, -2709.000000)" fill="#FFEF2B">
            <g id="плюшки" sketch:type="MSLayerGroup" transform="translate(328.000000, 2540.000000)">
                <g id="calc" transform="translate(433.000000, 169.000000)" sketch:type="MSShapeGroup">
                    <path d="M14.9284811,0 C6.6971463,0 0,6.6971463 0,14.9284811 C0,23.1598159 6.6971463,29.8569622 14.9284811,29.8569622 C23.1598159,29.8569622 29.8569622,23.1598159 29.8569622,14.9284811 C29.8569622,6.6971463 23.1598159,0 14.9284811,0 L14.9284811,0 Z M14.9284811,27.5602728 C7.9637705,27.5602728 2.2966894,21.8931917 2.2966894,14.9284811 C2.2966894,7.9637705 7.9637705,2.2966894 14.9284811,2.2966894 C21.8931917,2.2966894 27.5602728,7.9637705 27.5602728,14.9284811 C27.5602728,21.8931917 21.8931917,27.5602728 14.9284811,27.5602728 L14.9284811,27.5602728 Z" id="Fill-1"></path>
                    <path d="M14.9284811,32.1536516 C6.6971463,32.1536516 0,38.8507979 0,47.0821327 C0,55.3134676 6.6971463,62.0106139 14.9284811,62.0106139 C23.1598159,62.0106139 29.8569622,55.3134676 29.8569622,47.0821327 C29.8569622,38.8507979 23.1598159,32.1536516 14.9284811,32.1536516 L14.9284811,32.1536516 Z M14.9284811,59.7139244 C7.9637705,59.7139244 2.2966894,54.0468433 2.2966894,47.0821327 C2.2966894,40.1174221 7.9637705,34.450341 14.9284811,34.450341 C21.8931917,34.450341 27.5602728,40.1174221 27.5602728,47.0821327 C27.5602728,54.0468433 21.8931917,59.7139244 14.9284811,59.7139244 L14.9284811,59.7139244 Z" id="Fill-2"></path>
                    <path d="M47.0821327,29.8569622 C55.3134676,29.8569622 62.0106139,23.1598159 62.0106139,14.9284811 C62.0106139,6.6971463 55.3134676,0 47.0821327,0 C38.8507979,0 32.1536516,6.6971463 32.1536516,14.9284811 C32.1536516,23.1598159 38.8507979,29.8569622 47.0821327,29.8569622 L47.0821327,29.8569622 Z M47.0821327,2.2966894 C54.0468433,2.2966894 59.7139244,7.9637705 59.7139244,14.9284811 C59.7139244,21.8931917 54.0468433,27.5602728 47.0821327,27.5602728 C40.1174221,27.5602728 34.450341,21.8931917 34.450341,14.9284811 C34.450341,7.9637705 40.1174221,2.2966894 47.0821327,2.2966894 L47.0821327,2.2966894 Z" id="Fill-3"></path>
                    <path d="M47.0821327,32.1536516 C38.8507979,32.1536516 32.1536516,38.8507979 32.1536516,47.0821327 C32.1536516,55.3134676 38.8507979,62.0106139 47.0821327,62.0106139 C55.3134676,62.0106139 62.0106139,55.3134676 62.0106139,47.0821327 C62.0106139,38.8507979 55.3134676,32.1536516 47.0821327,32.1536516 L47.0821327,32.1536516 Z M47.0821327,59.7139244 C40.1174221,59.7139244 34.450341,54.0468433 34.450341,47.0821327 C34.450341,40.1174221 40.1174221,34.450341 47.0821327,34.450341 C54.0468433,34.450341 59.7139244,40.1174221 59.7139244,47.0821327 C59.7139244,54.0468433 54.0468433,59.7139244 47.0821327,59.7139244 L47.0821327,59.7139244 Z" id="Fill-4"></path>
                    <path d="M21.8185493,13.7801364 L16.0768258,13.7801364 L16.0768258,8.03841291 C16.0768258,7.40337829 15.5635157,6.89006821 14.9284811,6.89006821 C14.2934465,6.89006821 13.7801364,7.40337829 13.7801364,8.03841291 L13.7801364,13.7801364 L8.03841291,13.7801364 C7.40337829,13.7801364 6.89006821,14.2934465 6.89006821,14.9284811 C6.89006821,15.5635157 7.40337829,16.0768258 8.03841291,16.0768258 L13.7801364,16.0768258 L13.7801364,21.8185493 C13.7801364,22.4535839 14.2934465,22.966894 14.9284811,22.966894 C15.5635157,22.966894 16.0768258,22.4535839 16.0768258,21.8185493 L16.0768258,16.0768258 L21.8185493,16.0768258 C22.4535839,16.0768258 22.966894,15.5635157 22.966894,14.9284811 C22.966894,14.2934465 22.4535839,13.7801364 21.8185493,13.7801364" id="Fill-5"></path>
                    <path d="M21.4820843,40.5285295 C21.0330815,40.0795268 20.3073277,40.0795268 19.8583249,40.5285295 L14.9284811,45.4583733 L9.99863731,40.5285295 C9.54963453,40.0795268 8.82388068,40.0795268 8.3748779,40.5285295 C7.92587513,40.9775323 7.92587513,41.7032862 8.3748779,42.1522889 L13.3047217,47.0821327 L8.3748779,52.0119765 C7.92587513,52.4609793 7.92587513,53.1867332 8.3748779,53.6357359 C8.59880512,53.8596632 8.89278136,53.9722009 9.18675761,53.9722009 C9.48073385,53.9722009 9.77471009,53.8596632 9.99863731,53.6357359 L14.9284811,48.7058921 L19.8583249,53.6357359 C20.0822521,53.8596632 20.3762284,53.9722009 20.6702046,53.9722009 C20.9641809,53.9722009 21.2581571,53.8596632 21.4820843,53.6357359 C21.9310871,53.1867332 21.9310871,52.4609793 21.4820843,52.0119765 L16.5522405,47.0821327 L21.4820843,42.1522889 C21.9310871,41.7032862 21.9310871,40.9775323 21.4820843,40.5285295" id="Fill-6"></path>
                    <path d="M40.1920645,16.0768258 L53.9722009,16.0768258 C54.6072356,16.0768258 55.1205456,15.5635157 55.1205456,14.9284811 C55.1205456,14.2934465 54.6072356,13.7801364 53.9722009,13.7801364 L40.1920645,13.7801364 C39.5570299,13.7801364 39.0437198,14.2934465 39.0437198,14.9284811 C39.0437198,15.5635157 39.5570299,16.0768258 40.1920645,16.0768258" id="Fill-7"></path>
                    <path d="M53.9722009,45.933788 L40.1920645,45.933788 C39.5570299,45.933788 39.0437198,46.4470981 39.0437198,47.0821327 C39.0437198,47.7171674 39.5570299,48.2304774 40.1920645,48.2304774 L53.9722009,48.2304774 C54.6072356,48.2304774 55.1205456,47.7171674 55.1205456,47.0821327 C55.1205456,46.4470981 54.6072356,45.933788 53.9722009,45.933788" id="Fill-8"></path>
                    <path d="M47.0821327,43.4074297 C48.2235874,43.4074297 49.1491532,42.4818639 49.1491532,41.3404092 C49.1491532,40.1989546 48.2235874,39.2733888 47.0821327,39.2733888 C45.9406781,39.2733888 45.0151123,40.1989546 45.0151123,41.3404092 C45.0151123,42.4818639 45.9406781,43.4074297 47.0821327,43.4074297" id="Fill-9"></path>
                    <path d="M47.0821327,50.7568358 C45.9406781,50.7568358 45.0151123,51.6824016 45.0151123,52.8238562 C45.0151123,53.9653109 45.9406781,54.8908767 47.0821327,54.8908767 C48.2235874,54.8908767 49.1491532,53.9653109 49.1491532,52.8238562 C49.1491532,51.6824016 48.2235874,50.7568358 47.0821327,50.7568358" id="Fill-10"></path>
                </g>
            </g>
        </g>
    </g>
</svg>