<?xml version="1.0" encoding="UTF-8" standalone="no"?>
<svg width="53px" height="63px" viewBox="0 0 53 63" version="1.1" xmlns="http://www.w3.org/2000/svg" xmlns:xlink="http://www.w3.org/1999/xlink" xmlns:sketch="http://www.bohemiancoding.com/sketch/ns">
    <!-- Generator: Sketch 3.3.2 (12043) - http://www.bohemiancoding.com/sketch -->
    <title>camera</title>
    <desc>Created with Sketch.</desc>
    <defs></defs>
    <g id="1920x1024" stroke="none" stroke-width="1" fill="none" fill-rule="evenodd" sketch:type="MSPage">
        <g id="1920x1024---20160718_main" sketch:type="MSArtboardGroup" transform="translate(-449.000000, -2708.000000)" fill="#FFEF2B">
            <g id="плюшки" sketch:type="MSLayerGroup" transform="translate(328.000000, 2540.000000)">
                <g id="camera" transform="translate(121.000000, 168.000000)" sketch:type="MSShapeGroup">
                    <path d="M26.4119281,52.8238562 C40.976384,52.8238562 52.8238562,40.976384 52.8238562,26.4119281 C52.8238562,11.8474723 40.976384,0 26.4119281,0 C11.8474723,0 0,11.8474723 0,26.4119281 C0,40.976384 11.8474723,52.8238562 26.4119281,52.8238562 L26.4119281,52.8238562 Z M26.4119281,2.2966894 C39.7086114,2.2966894 50.5271668,13.1152448 50.5271668,26.4119281 C50.5271668,39.7086114 39.7086114,50.5271668 26.4119281,50.5271668 C13.1152448,50.5271668 2.2966894,39.7086114 2.2966894,26.4119281 C2.2966894,13.1152448 13.1152448,2.2966894 26.4119281,2.2966894 L26.4119281,2.2966894 Z" id="Fill-1"></path>
                    <path d="M26.4119281,41.3404092 C34.6432629,41.3404092 41.3404092,34.6432629 41.3404092,26.4119281 C41.3404092,18.1805933 34.6432629,11.483447 26.4119281,11.483447 C18.1805933,11.483447 11.483447,18.1805933 11.483447,26.4119281 C11.483447,34.6432629 18.1805933,41.3404092 26.4119281,41.3404092 L26.4119281,41.3404092 Z M26.4119281,13.7801364 C33.3766387,13.7801364 39.0437198,19.4472175 39.0437198,26.4119281 C39.0437198,33.3766387 33.3766387,39.0437198 26.4119281,39.0437198 C19.4472175,39.0437198 13.7801364,33.3766387 13.7801364,26.4119281 C13.7801364,19.4472175 19.4472175,13.7801364 26.4119281,13.7801364 L26.4119281,13.7801364 Z" id="Fill-2"></path>
                    <path d="M26.4119281,35.5986857 C31.4772766,35.5986857 35.5986857,31.4772766 35.5986857,26.4119281 C35.5986857,21.3465796 31.4772766,17.2251705 26.4119281,17.2251705 C25.3439675,17.2251705 24.2966772,17.406609 23.299914,17.7671892 L24.0784917,19.9260773 C24.8249157,19.6585129 25.6103835,19.5218599 26.4119281,19.5218599 C30.2118007,19.5218599 33.3019963,22.6120555 33.3019963,26.4119281 C33.3019963,30.2118007 30.2118007,33.3019963 26.4119281,33.3019963 C22.6120555,33.3019963 19.5218599,30.2118007 19.5218599,26.4119281 C19.5218599,25.4817689 19.7044467,24.5803183 20.0638786,23.7305432 L17.9486277,22.8359827 C17.4686196,23.9705473 17.2251705,25.1728642 17.2251705,26.4119281 C17.2251705,31.4772766 21.3465796,35.5986857 26.4119281,35.5986857" id="Fill-3"></path>
                    <path d="M40.1920645,56.2688903 C36.2107535,56.2688903 35.5780155,54.8644648 35.5699771,54.8644648 C35.4287307,54.2478037 34.8097729,53.8527731 34.1954085,54.0009096 C33.5764507,54.142156 33.1894585,54.7576687 33.3307049,55.3754782 C33.4053474,55.7016081 34.2287105,58.5655797 40.1920645,58.5655797 C41.9386968,58.5655797 42.802252,59.1351587 43.2271396,59.7139244 L10.0629446,59.7139244 C10.6175951,59.1133402 11.4489967,58.5655797 12.6317917,58.5655797 C18.5629921,58.5655797 19.4127672,55.7119432 19.4908546,55.3858133 C19.6378427,54.7691522 19.2646307,54.1191891 18.6479696,53.9722009 C18.0209734,53.8252128 17.4203891,54.175458 17.273401,54.7921191 C17.2688076,54.8070475 16.6716684,56.2688903 12.6317917,56.2688903 C8.40703156,56.2688903 7.00719937,60.3259922 6.94978213,60.4993922 C6.83150263,60.848489 6.89121655,61.2343328 7.10595701,61.5340508 C7.32299416,61.8337688 7.66979426,62.0106139 8.03841291,62.0106139 L44.7854433,62.0106139 C45.420478,62.0106139 45.933788,61.4973038 45.933788,60.8622692 C45.933788,59.2729601 44.7337678,56.2688903 40.1920645,56.2688903" id="Fill-4"></path>
                </g>
            </g>
        </g>
    </g>
</svg>