<?xml version="1.0" encoding="UTF-8" standalone="no"?>
<svg width="58px" height="58px" viewBox="0 0 58 58" version="1.1" xmlns="http://www.w3.org/2000/svg" xmlns:xlink="http://www.w3.org/1999/xlink" xmlns:sketch="http://www.bohemiancoding.com/sketch/ns">
    <!-- Generator: Sketch 3.3.2 (12043) - http://www.bohemiancoding.com/sketch -->
    <title>ВКонтакте 2 Copy</title>
    <desc>Created with Sketch.</desc>
    <defs></defs>
    <g id="1920x1024" stroke="none" stroke-width="1" fill="none" fill-rule="evenodd" sketch:type="MSPage">
        <g id="1920x1024---20160718_main" sketch:type="MSArtboardGroup" transform="translate(-1356.000000, -3358.000000)">
            <g id="Footer" sketch:type="MSLayerGroup" transform="translate(0.000000, 3329.000000)">
                <g id="Social" transform="translate(1356.740676, 29.489510)" sketch:type="MSShapeGroup">
                    <g id="ВКонтакте-2-Copy">
                        <ellipse id="Oval-8" fill="#FFFFFF" cx="28.2252726" cy="28.4153418" rx="28.2252726" ry="28.4153418"></ellipse>
                        <path d="M39.5813078,29.5259926 C38.5119732,28.3724651 37.0861937,27.6095639 35.3092112,27.2346674 L35.3092112,27.0799898 C36.5410427,26.5582808 37.5160243,25.7560548 38.2131885,24.6602036 C38.9208364,23.5617308 39.2694185,22.3138237 39.2694185,20.9059957 C39.2694185,19.6895485 39.0151895,18.6199138 38.5041104,17.6892268 C37.9956523,16.7637831 37.2224815,16.0166118 36.1950815,15.4634429 C35.2410673,14.9443555 34.2189092,14.6114055 33.1286073,14.4541063 C32.0409262,14.2863205 30.4343034,14.2076709 28.3218434,14.2076709 L18.1448181,14.2076709 L18.1448181,43.0222651 L29.6742371,43.0222651 C31.6766186,43.0222651 33.3199343,42.841371 34.6146679,42.4769612 C35.9172642,42.115173 37.1045401,41.5121927 38.1843584,40.6627769 C39.1069216,39.9496872 39.830295,39.0583249 40.3702042,37.975582 C40.9127342,36.8902175 41.1853097,35.6292021 41.1853097,34.1951576 C41.1853097,32.239404 40.6506424,30.6821418 39.5813078,29.5259926 L39.5813078,29.5259926 Z M25.3444803,19.4929245 L25.8450757,19.4929245 C27.1345674,19.4929245 28.1043071,19.4981678 28.7569158,19.519141 C29.4121453,19.5374926 29.9756427,19.6502237 30.447408,19.859956 C30.958487,20.0827965 31.3254156,20.4367197 31.5639191,20.926969 C31.8024227,21.4119749 31.920364,21.8891158 31.920364,22.3610134 C31.920364,22.984967 31.8076645,23.5433792 31.5901283,24.0231418 C31.3725921,24.5002827 30.9689707,24.8751792 30.3949896,25.1452095 C29.8681851,25.391645 29.3518642,25.5253493 28.8565107,25.5489442 C28.3611571,25.5751607 27.4883914,25.588269 26.2539389,25.588269 L25.3444803,25.588269 L25.3444803,19.4929245 L25.3444803,19.4929245 Z M33.2806205,35.9254489 C32.976594,36.4733745 32.5022078,36.8902175 31.8443574,37.1759777 C31.0947748,37.4984411 30.3556758,37.6714702 29.6375443,37.6950651 C28.9167918,37.7239033 27.6141954,37.7370116 25.7323762,37.7370116 L25.3444803,37.7370116 L25.3444803,30.522221 L26.6785277,30.522221 C27.9653985,30.522221 28.9954193,30.5300859 29.7607274,30.5510592 C30.5286564,30.5694107 31.1340885,30.6611686 31.5717819,30.8341977 C32.2899135,31.0911198 32.8298226,31.4660162 33.1941302,31.9772387 C33.5584379,32.4779745 33.7366603,33.1727127 33.7366603,34.0614533 C33.7366603,34.7561915 33.584647,35.3775234 33.2806205,35.9254489 L33.2806205,35.9254489 Z" id="Imported-Layers" fill="#000000"></path>
                    </g>
                </g>
            </g>
        </g>
    </g>
</svg>